<svg xmlns="http://www.w3.org/2000/svg" width="218.746mm" height="201.179mm" viewBox="0 0 218.746 201.179"><defs><image id="a" width="8" height="8" x="0" y="0" preserveAspectRatio="none"/><image id="b" width="8" height="8" x="0" y="0" preserveAspectRatio="none"/><image id="c" width="8" height="8" x="0" y="0" preserveAspectRatio="none"/><image id="d" width="8" height="8" x="0" y="0" preserveAspectRatio="none"/></defs><path d="M5.346 1.646h161.62v95.901h6.932c7.884 0 14.276 6.403 14.276 14.287 0 7.895-6.392 14.287-14.276 14.287H156.88l-70.724 71.56-80.81-81.762v-11.44h-29.378L5.346 67.757Z" style="fill:#012063;fill-opacity:1;fill-rule:evenodd;stroke:none;stroke-width:.264583" transform="translate(28.44 .476)"/><path d="M3.229-.47h165.853v98.028l-2.116-2.117h6.953l.825.022.826.063.825.095.804.149.794.18.783.222.762.264.741.286.73.339.71.36.677.391.666.423.646.455.624.498.593.508.571.55.54.561.519.593.476.624.465.646.424.666.391.678.37.709.329.73.285.751.265.752.222.783.18.793.148.805.106.825.064.836.02.836-.02.847-.064.825-.106.826-.148.804-.18.794-.222.783-.265.762-.285.74-.328.73-.37.71-.392.688-.424.667-.455.645-.486.614-.519.593-.54.571-.571.55-.603.508-.614.487-.646.455-.666.423-.678.403-.709.36-.73.328-.74.296-.763.254-.783.222-.794.18-.804.148-.825.106-.836.063-.815.022H156.88l1.514-.625-72.238 73.085-82.927-83.91v-12.309l2.117 2.117h-33.78L3.694 66.434l-.466 1.323Zm4.233 68.968-29.833 37.304-1.661-3.44H7.462v13.557l-.614-1.492 80.81 81.773h-3.005l71.35-72.196h17.895-.053l.73-.02-.106.01.73-.053-.106.01.71-.095-.106.021.698-.126-.095.02.688-.158-.106.021.677-.19-.095.031.667-.222-.095.032.645-.254-.095.042.635-.286-.106.043.624-.318-.095.053.603-.35-.084.054.582-.37-.095.063.56-.402-.074.063.53-.423-.064.053.519-.445-.085.074.497-.476-.074.074.476-.497-.074.074.455-.518-.063.074.423-.54-.063.085.402-.561-.064.084.37-.582-.042.085.34-.593-.043.085.317-.614-.053.096.286-.635-.042.105.254-.645-.032.085.222-.667-.031.106.2-.678-.031.106.159-.698-.021.106.127-.71-.011.117.085-.72-.011.106.053-.73v.116l.021-.74v.105l-.021-.73v.106l-.053-.72.01.096-.084-.71.01.106-.126-.698.02.095-.158-.688.032.106-.201-.677.031.095-.222-.667.032.096-.254-.646.042.095-.286-.624.053.095-.317-.614.042.085-.339-.603.043.084-.37-.582.063.096-.402-.561.063.074-.423-.54.063.085-.444-.519.063.074-.476-.497.074.074-.497-.476.074.063-.519-.444.085.063-.54-.423.085.063-.56-.402.084.064-.582-.37.085.052-.604-.349.096.053-.625-.317.106.042-.635-.286.095.042-.645-.254.095.032-.667-.222.095.032-.677-.19.106.02-.688-.158.095.02-.698-.126.106.021-.71-.095.106.01-.73-.052h.106l-.73-.011h.053-9.049V1.646l2.117 2.117H5.346l2.116-2.117z" style="fill:#c5a472;fill-opacity:1;fill-rule:nonzero;stroke:#c5a472;stroke-width:.0105828px;stroke-linecap:butt;stroke-linejoin:round;stroke-miterlimit:4;stroke-dasharray:none;stroke-opacity:1" transform="translate(28.44 .476)"/><path d="M-14.72 96.616a53.186 53.186 0 0 0 1.313 6.18h-6.265zm47.03-28.425c12.319.17 24.785 7.27 33.283 16.498-3.555 1.239-8.741 2.794-11.334 4.34 12.636 4.656 19.113 6.836 22.997 17.694 7.767 22.647.317 41.273-4.212 48.405a52.879 52.879 0 0 1-12.784 13.705l-16.118-16.34c19.324-17.514 19.43-49.23-4.127-67.18-6.805-5.28-19.44-9.312-27.537-7.756 3.895-6.837 9.07-8.382 14.583-9.006a32.26 32.26 0 0 1 5.25-.36Zm57.91-16.573c2.603.042 5.28.35 7.545.667 7.8 1.238 16.562 4.021 26.944 8.678 10.456 4.624 29.515 17.662 40.172 33.727v5.217h3.143c1.46 2.763 2.635 5.599 3.44 8.477 1.439 5.408 2.254 10.604 2.455 15.61h-17.43l-70.354 71.053L71.678 180.4c7.493-3.207 15.166-7.408 22.849-12.805 17.197-12.086 35.06-36.267 34.404-63.857-.317-14.572-8.762-34.404-23.695-45.876-13.958 2.17-5.841 18.287.646 27.896 3.249 4.964 6.815 8.678 11.366 12.403 1.62 1.238 2.593 3.101 2.92 5.884.646 5.577-.645 11.472-.645 11.472-.01 0-3.905-.317-14.287-8.985-4.868-4.032-9.418-9.302-13.313-14.88 3.577-.624 8.445-2.169 10.393-3.1-10.065-4.032-15.589-8.37-17.854-12.096-2.275-3.408-2.92-5.577-3.905-8.054-1.29-5.27-3.566-13.334 2.604-15.81 1.947-.773 4.466-1.006 7.058-.974zM29.875 4.101H91.32c-3.767 2.096-7.418 4.572-7.577 6.35 4.233-.931 13.345-2.783 20.827-2.476 24.404.931 47.834 20.7 58.893 43.876.518 1.1.995 2.201 1.418 3.28v25.24c-4.603-5.608-13.101-14.942-23.547-22.033C118.232 42.58 89.278 36.093 60.97 39.49 39.496 41.967 17.368 54.327 5.335 71.937.128 79.663-3.449 89.547-4.433 97.58c0 0-1.153-4.55-1.884-11.461L7.547 68.794h-.074v-43.23c6.455-9.81 13.916-15.938 19.98-20.055Z" style="fill:#013983;fill-opacity:1;fill-rule:evenodd;stroke:none;stroke-width:.264583" transform="translate(28.44 .476)"/><path d="m51.725 83.848 3.883-21.197H42.803c-2.413 0-4.513 1.704-4.931 4.016l-3.149 17.181H18.765l33.483-42.199H23.701c1.466 2.413 5.038 3.318 3.778 7.032l-39.574 49.93h44.088l-3.884 21.097H45.11l3.884-21.097h15.954c-4.09-4.72-5.874-10.244-6.297-14.763Z" style="fill:#fff;fill-opacity:1;fill-rule:evenodd;stroke:none;stroke-width:.264583" transform="translate(28.44 .476)"/><path d="m46.444 88.25 4.836-26.393 4.328 5.196H42.803l.18-.005-.444.021.397-.037-.44.058.376-.063-.429.095.355-.095-.413.127.37-.133-.396.164.317-.148-.38.196.317-.18-.36.222.333-.227-.338.254.259-.207-.317.28.264-.258-.29.307.253-.291-.265.328.233-.313-.238.355.196-.328-.201.376.164-.34-.17.392.149-.396-.133.412.106-.391-.095.423.037-.19-3.81 20.79H9.653l39.15-49.337 3.445 7.138H23.701l3.63-6.89.302.44-.244-.323.334.402-.196-.222.365.386-.143-.143.387.365-.096-.085.81.736.481.444.53.54.55.64.56.789.477.878.243.603.18.561.138.593.1.635.037.619-.005.608-.058.651-.106.62-.143.592-.386 1.27-40.088 50.586-3.455-7.138H37.28l-4.842 26.298-4.328-5.202H45.11l-4.328 3.61 4.55-24.706h19.616l-3.387 7.212-.804-.969-.81-1.068-.74-1.08-.688-1.09-.625-1.1-.571-1.106-.524-1.112-.466-1.11-.418-1.107-.365-1.1-.317-1.085-.28-1.08-.233-1.068-.191-1.048-.148-1.032-.1-.931 4.37 3.915zm16.15-8.804.528 4.778-.016-.148.127.878-.026-.159.164.894-.027-.137.196.915-.037-.164.238.926-.042-.148.275.937-.047-.149.317.942-.058-.153.36.947-.07-.164.403.952-.063-.148.444.953-.085-.17.492.948-.079-.143.54.942-.1-.164.587.93-.101-.147.635.92-.116-.158.687.91-.121-.154 6.715 8.101h-25.32l4.334-3.603-4.55 24.7H22.822l4.842-26.293 4.328 5.196h-53.194l45.23-57.062-.762 1.46.101-.343-.069.259.08-.323-.059.275.053-.312-.047.35.026-.297-.016.354.006-.285.005.301-.016-.264.042.402-.037-.26.064.35-.058-.249.095.339-.074-.238.11.312-.094-.228.206.429-.233-.429.286.455-.286-.402.249.323-.323-.376.19.207-.36-.37.149.147-.381-.354.042.037-.83-.751-.503-.482-.54-.566-.56-.677-5.133-7.498H61.366L22.215 86.584l-3.45-7.138h15.958l-4.328 3.608 3.164-17.276.164-.72.265-.804.333-.757.386-.709.45-.677.508-.635.556-.577.582-.513.63-.482.693-.428.703-.36.747-.307.777-.243.794-.18.826-.106.74-.032h18.182l-4.837 26.394-4.333-5.196z" style="fill:#012063;fill-opacity:1;fill-rule:nonzero;stroke:#012063;stroke-width:.00529139px;stroke-linecap:butt;stroke-linejoin:round;stroke-miterlimit:4;stroke-dasharray:none;stroke-opacity:1" transform="translate(28.44 .476)"/><path d="M135.207 81.134c-1.995-7.128-10.826-13.451-15.139-15.356-3.36-1.508-6.201-2.413-8.725-2.815-1.471-.201-3.466-.402-4.73.1-1.996.805-1.26 3.413-.842 5.123.317.804.529 1.502 1.265 2.608.735 1.207 2.524 2.609 5.783 3.916-.635.301-2.212.804-3.365 1.005 1.259 1.805 2.73 3.508 4.307 4.815 3.365 2.81 4.63 2.91 4.63 2.91s.418-1.904.206-3.714c-.106-.9-.418-1.503-.942-1.905-1.476-1.206-2.63-2.407-3.682-4.016-2.101-3.111-4.731-8.329-.212-9.032 4.836 3.714 7.572 10.138 7.678 14.852.211 8.938-5.572 16.764-11.144 20.68-17.139 12.042-33.96 5.619-33.96 5.619s5.678 7.63 15.88 10.239c11.773 2.91 27.541-.699 31.324-13.25.948 1.608.212 6.027.212 6.027s6.831-4.921 10.197-12.049c2.1-4.714 2.836-9.836 1.259-15.757z" style="fill:#fff;fill-opacity:1;fill-rule:evenodd;stroke:none;stroke-width:.264583" transform="translate(28.44 .476)"/><path d="m130.931 82.181.075.254-.202-.666.075.243-.244-.656.074.19-.275-.656.085.19-.318-.645.096.17-.35-.636.085.149-.37-.635.074.137-.402-.624.095.137-.424-.613.085.116-.455-.603.085.106-.476-.593.084.095-.497-.582.074.095-.508-.571.116.116-1.068-1.1.158.148-1.11-1.048.094.095-.56-.497.063.053-.561-.476.063.053-.571-.466.064.042-.572-.444.053.042-.572-.434.075.053-.572-.412.064.042-.561-.392.074.043-.561-.37.063.042-.54-.36.064.042-.54-.328.075.042-.519-.317.064.042-.498-.286.085.053-.476-.264.084.042-.465-.243.074.042-.445-.222.127.063-.412-.19.074.032-1.239-.54.096.042-1.186-.476.106.042-1.143-.434.138.053-1.111-.38.127.042-1.059-.318.149.042-1.027-.275.17.043-.995-.223.169.032-.963-.17.222.033-.571-.075.084.011-.603-.063.138.01-.625-.042h.149l-.635-.021h.243l-.624.01.306-.01-.592.042.413-.053-.561.106.349-.085-.265.074.35-.106-.244.085.297-.116-.18.074.391-.19-.17.084.456-.286-.286.212.603-.54-.222.244.476-.625-.169.275.328-.613-.137.306.211-.592-.085.328.106-.508-.053.339.043-.445-.01.36v-.328l.01.36-.021-.275.031.37-.02-.233.052.381-.021-.159.063.37-.031-.169.158.73-.031-.105.084.349v-.021l.085.338-.17-.518.234.593-.011-.032.116.296-.053-.116.127.296-.074-.159.16.318-.064-.127.169.338-.106-.19.212.36-.085-.148.254.402-.053-.074.148.222-.148-.212.18.233-.18-.212.201.233-.159-.18.223.233-.148-.148.254.243-.138-.127.275.244-.159-.138.307.244-.116-.085.339.243-.127-.095.37.254-.148-.095.402.254-.116-.064.433.244-.116-.064.466.254-.127-.063.497.243-.085-.032.53.244-.128-.053.561.243-.095-.031 10.043 4.137-9.482 4.265-.254.106-.265.095-.264.106-.519.18-.55.17-.56.169-.593.159-.635.148-.53.105 2.73-6.9.488.678-.064-.095.497.656-.074-.096.519.646-.095-.106.54.614-.085-.095.54.603-.117-.127.56.571-.105-.105.572.54-.138-.128.582.508-.095-.084.603.497-.074-.053.56.434-.084-.074.508.38-.085-.063.466.328-.095-.063.423.286-.116-.074.38.232-.147-.084.338.19-.084-.042.296.159-.148-.074.254.127-.201-.096.222.096-.148-.064.19.074-.243-.084.148.042-.159-.042.106.031-.17-.053.075.022-.265-.053.043.01-.043-.01h.021l-4.995 3.28v-.02l-.042.168.021-.063-.021.116.021-.127.032-.169-.032.159.032-.18.032-.201-.01.074.03-.233-.02.116.031-.254v.032l.032-.275-.01.116.02-.296-.01.148.032-.624-.01.222v-.667l.01.329-.053-.678.042.328-.053-.328.064.328-.074-.296.106.35-.096-.276.17.434-.106-.243.212.412-.127-.222.243.381-.148-.201.339.413-.17-.18.36.349-.18-.159.032.021-.593-.486-.614-.561-.603-.572-.582-.603-.571-.646-.54-.666-.53-.699-.465-.688-.455-.687-.476-.762-.466-.805-.444-.857-.423-.9-.37-.899-.202-.53-.159-.507-.137-.519-.127-.56-.096-.561-.074-.593-.02-.646.02-.656.085-.698.159-.72.243-.72.37-.761.456-.71.55-.645.645-.582.699-.476.72-.392.75-.296.763-.212 2.624-.518 2.593 2.148 1.048.974.963 1.037.889 1.069.825 1.11.752 1.144.688 1.174.613 1.175.55 1.206.488 1.207.412 1.217.36 1.217.275 1.206.222 1.207.138 1.206.064 1.154v1.037l-.032 1.005-.074.995-.127.995-.148.963-.19.942-.213.942-.254.93-.285.911-.307.889-.339.878-.37.858-.392.846-.413.815-.423.804-.444.783-.477.762-.486.752-.508.73-.519.709-.529.688-.54.667-.56.645-.572.635-.572.593-.582.592-.592.561-.614.55-.603.509-.603.486-.614.487-.625.445-.889.613-.889.572-.878.55-.889.53-.878.497-.879.465-.889.445-.867.423-.868.392-.879.37-.857.35-.868.327-.857.297-.836.275-.846.265-.836.232-.836.223-.826.2-.804.18-.826.16-1.566.274-1.545.202-1.503.148-1.45.095-1.397.042h-1.354l-1.302-.042-1.227-.074-1.175-.095-1.1-.127-.551-.075-.519-.074-.486-.084-.466-.085-.466-.074-.434-.095-.433-.085-.403-.095-.37-.074-.381-.096-.339-.084h.022l-.318-.085-.328-.085-.275-.084-.254-.074-.233-.075.032.011-.222-.063-.202-.064-.158-.053-.223-.074-.158-.063.137.052-.074-.031-.137-.043-.085-.042 4.89-7.048.158.18.17.222-.064-.085.084.106-.031-.042.116.148-.032-.042.149.17.169.21-.064-.073.212.233-.053-.053.244.264-.032-.032.275.297-.032-.032.307.317-.063-.063.338.339-.042-.032.37.36-.074-.074.402.38-.053-.042.434.392-.063-.053.466.402-.075-.063.487.412-.053-.042.519.423-.085-.074.55.423-.063-.042.571.434-.074-.063.604.433-.075-.063.635.434-.105-.064.666.424-.074-.053.688.423-.116-.074.73.413-.095-.053.751.402-.127-.064.783.392-.116-.053.804.37-.106-.052.826.349-.138-.053.868.339-.138-.053.89.307-.138-.043.91.286-.138-.042.942.254-.19-.043 1.11.254-.158-.031 1.132.211-.137-.02 1.153.168-.169-.02 1.164.137-.137-.01 1.174.094-.158-.01 1.195.053h-.158l1.196.01h-.138l1.196-.02h-.17l1.207-.064-.159.01 1.196-.106-.159.011 1.186-.148-.16.021 1.186-.201-.159.032 1.164-.233-.169.032 1.154-.286-.17.053 1.133-.328-.17.053 1.112-.37-.18.063 1.09-.423-.18.074 1.069-.466-.19.095 1.026-.508-.18.095 1.005-.56-.19.116.963-.603-.19.127.93-.646-.211.148.889-.698-.18.148.846-.74-.2.18.804-.795-.19.202.75-.847-.18.222.689-.9-.16.223.646-.942-.169.254.582-.995-.106.19.275-.507-.063.116.254-.529-.074.148.243-.54-.063.138.222-.56-.053.137.212-.572-.053.138 3.376-10.467 5.069 9.493.233.55.254.794.158.815.106.762.053.71.021.676-.01.656-.021.604-.043.582-.042.54-.042.476-.053.412-.021.212-.022.138-.02.158-.033.17-.01.095.021-.127-.032.243-.053.212.106-.931v.02l-6.963-3.587.02-.01-.137.095.117-.085.148-.116-.106.085.127-.096.159-.127-.021.022.19-.149-.053.043.222-.18-.042.031.244-.2.275-.233-.043.042.297-.254-.053.042.317-.275-.032.032.34-.307-.033.042.35-.328-.043.042.37-.349-.031.032.381-.37-.053.063.392-.391-.032.031.402-.402-.042.042.412-.423-.052.053.412-.444-.053.052.424-.476-.032.043.434-.487-.074.084.423-.508-.053.064.424-.53-.043.064.424-.54-.064.075.413-.561-.053.074.413-.572-.064.085.402-.582-.074.095.392-.603-.053.085.38-.625-.073.117.36-.635-.053.106.338-.646-.063.117.328-.657-.095.223.37-.89-.053.149.339-.9-.053.159.307-.91-.053.159.275-.921-.053.18.244-.931-.043.169.201-.953-.042.202.159-.953-.032.19.116-.973-.02.201.073-.995-.01.19.031-.994v.212l-.02-1.016.01.2-.064-1.036.011.2-.116-1.047.031.19-.17-1.068.033.18-.212-1.08.042.19zm8.848-.9.254 1.281.19 1.249.138 1.238.084 1.238.022 1.217-.032 1.207-.095 1.175-.127 1.164-.19 1.153-.244 1.133-.275 1.1-.328 1.1-.36 1.07-.402 1.047-.455 1.08-.413.825-.402.762-.424.752-.434.709-.444.698-.466.688-.465.656-.466.635-.476.603-.476.582-.477.582-.476.54-.465.508-.466.508-.466.487-.444.444-.434.424-.434.412-.402.37-.392.36-.37.329-.35.317-.349.286-.285.243-.265.222-.275.212-.233.18-.17.138-.18.137-.147.106.106-.085-.117.096-7.048 5.037v-9.038l.106-.487-.064.35.022-.127.02-.149-.01.032.021-.106-.02.106.02-.127.022-.148.02-.159-.01.096.042-.36-.01.032.042-.403-.01.096.042-.455-.01.095.031-.476v.095l.01-.498v.127-.508l.011.18-.021-.497.01.17-.031-.487.021.253-.063-.465.063.328-.095-.434.116.423-.127-.38.148.39-.074-.168.17.349-.085-.159 8.075-.72-.212.657-.254.698-.265.688-.306.688-.318.667-.35.666-.708 1.228-.805 1.185-.878 1.122-.931 1.048-.984.994-1.048.91-1.08.858-1.132.783-1.164.73-1.196.656-1.217.603-1.26.55-1.27.487-1.29.434-1.302.37-1.333.329-1.323.275-1.344.222-1.344.17-1.344.127-1.365.074-1.344.031-1.344-.01-1.344-.064-1.323-.116-1.323-.148-1.312-.201-1.292-.244-1.29-.296-1.112-.307-1.048-.328-1.026-.36-1.005-.38-.963-.413-.921-.424-.9-.444-.857-.455-.825-.477-.794-.476-.751-.476-.73-.497-.7-.487-.645-.487-.635-.487-.582-.487-.55-.465-.53-.455-.486-.445-.466-.434-.412-.412-.392-.392-.36-.381-.307-.328-.285-.318-.275-.306-.212-.254-.159-.201-.159-.18-.127-.16-.074-.105.244.296-12.89-14.18 17.768 7.1-.148-.052.032.01-.032-.01.127.042.159.063-.17-.063.106.042-.052-.021.137.042.148.053-.095-.032.19.064.212.063-.063-.02.211.063-.01-.01.233.073-.053-.021.264.074-.084-.021.285.074.307.074-.074-.01.318.074-.043-.011.328.074h-.01l.349.074-.074-.01.37.074-.042-.01.392.073-.064-.01.413.074h-.032l.434.074-.053-.01.445.073-.053-.01.455.074-.064-.01.476.063-.084-.01.995.105-.117-.01 1.058.095-.127-.011 1.112.063h-.117l1.164.032h-.148 1.217-.137l1.259-.032h-.138l1.313-.074-.16.011 1.355-.138-.169.022 1.387-.19-.149.02 1.418-.243-.127.032.73-.148-.084.02.73-.169-.074.022.73-.18-.084.02.74-.19-.084.022.751-.212-.095.021.762-.233-.085.032.762-.254-.085.032.773-.275-.085.031.773-.285-.095.031.772-.306-.085.031.784-.338-.096.053.783-.36-.063.032.783-.381-.095.053.794-.403-.085.043.794-.424-.096.053.805-.455-.074.043.793-.466-.084.053.804-.498-.085.053.805-.529-.085.053.804-.55-.085.063.519-.38-.106.084.519-.402-.085.063.519-.423-.075.064.519-.445-.095.095.508-.465-.074.074.508-.487-.074.074.497-.497-.064.063.498-.518-.074.084.487-.55-.085.106.476-.572-.053.074.466-.571-.074.085.465-.593-.074.095.455-.614-.063.096.434-.635-.074.106.423-.646-.064.106.403-.656-.064.106.381-.678-.053.106.37-.688-.063.106.36-.698-.064.127.328-.72-.052.127.306-.73-.052.137.285-.74-.053.137.265-.751-.042.137.232-.762-.042.148.212-.772-.042.159.18-.783-.032.148.158-.794-.031.159.127-.805-.022.16.096-.805-.01.18.063-.815-.011.17.032-.826-.01.18v-.836l.01.232-.053-.9.021.276-.106-.942.032.254-.17-.963.053.233-.232-.984.052.211-.285-.994.063.211-.338-1.005.074.201-.402-1.005.084.2-.465-1.005.095.201-.508-.994.095.19-.56-.973.116.2-.625-.952.138.201-.678-.92.16.2-.731-.878.17.19-.784-.835.201.2-.836-.782.212.19-.879-.73 3.662.92-.402.085.35-.084-.36.105.423-.148-.328.127.423-.19-.286.148.455-.275-.254.17.445-.35-.212.19.402-.412-.18.211.328-.444-.148.233.286-.508-.116.243.2-.508-.084.265.116-.413-.063.275.085-.455-.043.286.032-.36-.01.296v-.339l.01.318-.021-.328.031.328-.031-.222.053.328-.043-.244.074.339-.052-.201.095.338-.043-.137.117.35-.064-.18.127.348-.074-.18.297.71-.096-.212.339.709-.085-.17.37.689-.084-.127.392.677-.074-.127.402.645-.064-.105.392.603-.043-.064.403.593-.106-.159.412.55-.116-.137.434.518-.127-.148.444.508-.127-.137.466.476-.127-.116.487.465-.106-.106.519.466-.106-.095.55.465.402.339.508.56.445.604.36.625.296.677.211.667.149.635.095.645.085 1.005v.942l-.032.815-.042.423-.032.35-.042.317-.043.328-.031.233v-.01l-.043.253-.042.212.01-.053-.031.17-.042.2-1.006 4.054-4.053-.677-.201-.032-.296-.074-.276-.074-.349-.117-.37-.148-.392-.17-.434-.21-.402-.223-.455-.254-.508-.318-.529-.349-.55-.391-.604-.455-.645-.498-.688-.56-.709-.615-.698-.656-.678-.688-.645-.72-.625-.719-.603-.751-.571-.752-4.54-6.296 7.206-1.397-.158.031.476-.116-.148.042.476-.127-.085.022.477-.138-.106.032.455-.148-.106.031.413-.137-.117.042.18-.063-.053.01.17-.063-.127.053.148-.064-.074.032.127-.053.127 8.085-.646-.264-.667-.297-.624-.296-.593-.307-.592-.317-.54-.318-.53-.328-.507-.339-.466-.349-.455-.35-.434-.38-.402-.381-.391-.413-.37-.434-.34-.444-.243-.37-.317-.509-.318-.54-.254-.497-.222-.465-.19-.445-.138-.37-.339-.857-.148-.604-.095-.412-.19-.868-.096-.53-.084-.581-.053-.625-.011-.666.042-.752.127-.815.244-.878.391-.9.582-.91.773-.825.825-.614.593-.328.53-.233.57-.2.604-.16.942-.169.963-.085.889-.01.836.032.772.063.72.074.73.095 1.164.212 1.164.265 1.186.306 1.206.37 1.238.414 1.27.476 1.291.529 1.323.571.519.233.54.265.55.286.571.317.572.328.592.36.593.37.614.392.613.423.635.445.625.455.635.487.635.497.645.519.635.54.646.581 1.238 1.164 1.185 1.239.603.677.583.667.55.698.54.72.518.74.487.762.466.773.433.804.403.826.36.846.327.879.286.91z" style="fill:#012063;fill-opacity:1;fill-rule:nonzero;stroke:#012063;stroke-width:.0105828px;stroke-linecap:butt;stroke-linejoin:round;stroke-miterlimit:4;stroke-dasharray:none;stroke-opacity:1" transform="translate(28.44 .476)"/><path d="M78.277 77.63c.317-2.597 1.47-5.799 3.159-8.296 3.894-5.704 11.048-9.705 17.996-10.504 9.16-1.1 18.525 1 26.002 6.101 5.154 3.503 8.836 8.7 8.836 8.7s.947-5.197-1.682-10.8c-3.577-7.498-11.155-13.9-19.05-14.202-2.423-.101-5.37.502-6.735.799.106-1.196 5.154-3.398 5.154-3.398s-12.943-4.804-23.367 1.8c-3.683 2.497-8.943 7.302-10.737 17.9-1.052 6.101.424 11.9.424 11.9z" style="fill:#fff;fill-opacity:1;fill-rule:evenodd;stroke:none;stroke-width:.264583" transform="translate(28.44 .476)"/><path d="m82.452 76.244-8.53.783.074-.571.116-.646.138-.645.159-.667.17-.645.2-.646.212-.656.233-.646.254-.656.285-.666.593-1.25.656-1.216.381-.646.402-.614.466-.656.466-.614.508-.624.518-.603.53-.582.57-.593 1.122-1.058 1.207-1.027 1.26-.952 1.301-.89 1.355-.825 1.375-.75 1.397-.678.752-.328.73-.297.74-.275.741-.264.752-.244.751-.222.752-.201.762-.18.761-.17.784-.147.772-.117.752-.095.941-.106.963-.085.953-.063.952-.042.953-.022h.963l.952.022.942.042.953.063.952.075.942.105.942.127.942.138.941.159.932.19.92.201.921.222.92.254.9.265.91.275.9.318.889.317.878.35.868.37.879.38.857.413.836.424.846.444.836.476.815.487.805.508.804.53 1.08.772 1.047.804.984.826.921.815.868.814.815.805.74.772.667.73.318.36.307.339.275.328.264.318.244.296.232.275.212.254.17.233.18.222.158.201.127.18.106.127-.021-.021.106.148.084.116-.053-.084.106.148.074.116-8 1.715v-.032l.01-.074-.02.127.01-.074-.01.084.02-.137.022-.17-.022.18.022-.148.01-.18v.053l.021-.2-.01.042.02-.233v.074l.012-.244v.106l.01-.264v-.286.085l.01-.307v.106l-.01-.329.01.032-.01-.349v.085l-.01-.36v.085L130 70.19l.01.106-.03-.392.01.106-.085-.836.021.19-.137-.9.042.202-.19-.942.042.17-.117-.487.022.095-.127-.487.042.127-.148-.497.021.084-.159-.508.053.149-.18-.508.032.084-.19-.518.052.148-.222-.519.053.106-.233-.518.064.137-.35-.698.075.127-.37-.688.052.106-.392-.688.064.116-.413-.677.085.116-.445-.656.064.085-.455-.656.074.105-.466-.645.074.106-.497-.635.085.106-.508-.614.085.095-.53-.603.064.084-.54-.592.095.106-.56-.572.095.095-.572-.55.085.085-.582-.53.095.085-.603-.518.106.084-.625-.486.117.084-.635-.476.116.085-.645-.445.105.074-.645-.434.127.085-.667-.402.117.063-.667-.38.148.084-.688-.35.148.075-.698-.328.148.063-.698-.307.158.075-.709-.276.148.053-.72-.243.202.063-.72-.211.17.042-.73-.18.18.043-.731-.149.212.043-.741-.117.19.021-.74-.074.222.01-.741-.041.17.01-.456-.01h.127-.476.201l-.952.042.19-.01-.952.084.148-.01-.931.116.105-.01-.444.063.053-.01-.434.073h.032l-.424.064.075-.01-.392.073h.032l-.37.064h.031l-.35.074.064-.021-.317.074-6.858 1.45 1.46-7.123.35-.836.38-.613.36-.466.34-.36.317-.317.307-.265.338-.265.572-.412.582-.381.593-.35.56-.317.55-.296.53-.275.476-.233.434-.212.212-.095-.022.01.16-.074-.022.01.148-.073.18-.085.159-.063-.117.053.117-.053.148-.064.074-.032.572 8.36-.307-.073-.307-.127.243.095-.116-.042-.148-.053.2.063-.137-.042-.148-.053.116.042-.116-.042-.138-.042-.148-.043.053.01-.159-.052.064.021-.37-.106.042.01-.424-.115.043.01-.498-.127.085.021-.54-.127.085.01-.593-.126.074.01-.645-.127.085.022-.678-.127.085.01-.72-.116.074.01-.761-.116.105.021-.793-.095.095.01-.836-.084.116.01-.867-.063.127.01-.9-.031h.116l-.91-.01h.138l-.942.01h.127l-.963.042.17-.01-.974.084.137-.021-.984.116.17-.02-.995.158.169-.032-1.005.201.18-.042-1.017.254.191-.053-1.016.296.201-.063-1.016.35.201-.075-1.016.402.201-.085-1.005.456.17-.075-.509.254.096-.052-.498.275.127-.074-.497.285.095-.053-.497.297.264-.17-.709.508.064-.042-.37.265.073-.053-.37.285.053-.042-.37.307.074-.063-.381.317.063-.063-.38.338.073-.074-.391.36.063-.053-.391.37.084-.084-.391.391.084-.084-.391.412.074-.084-.392.434.075-.085-.392.455.085-.095-.392.476.074-.095-.38.497.063-.085-.381.519.084-.106-.38.54.074-.106-.36.572.063-.106-.36.592.053-.095-.349.614.074-.127-.338.645.052-.105-.338.677.063-.116-.328.698.053-.116-.307.73.053-.117-.296.752.042-.106-.286.794.043-.127-.265.815.032-.117-.243.857.031-.127-.233.879.032-.117-.222.91.032-.105-.201.941.02-.116-.18.974.022-.138-.17 1.143.032-.201-.116 1.122.01-.17-.063 1.101.01-.17-.031 1.07v-.149l.01 1.027v-.116l.032.984v-.138l.064.92-.01-.084.041.434-.01-.042.042.423v-.074l.042.402v-.021l.043.38v-.052l.042.37v-.042l.053.35-.01-.043.052.317-.01-.042.053.296-.011-.02.053.285-.01-.074.042.243v-.031l.042.232.042.201-.021-.095.032.17v-.011l.032.138-.011-.043.032.138.032.127.01.074-.127-.487zm-8.435 2.53-.063-.297.01.064-.01-.085v.032l-.032-.138-.032-.169-.053-.222-.042-.244-.053-.243-.053-.307-.063-.328-.053-.339-.053-.36-.064-.391-.053-.413-.052-.434-.053-.455-.053-.476-.043-.508-.074-1.048-.042-1.11-.01-1.165.031-1.228.085-1.27.127-1.312.19-1.312.201-1.1.223-1.059.243-1.026.265-.995.285-.963.307-.932.318-.91.338-.867.36-.847.37-.815.392-.783.392-.762.423-.73.413-.699.434-.666.444-.657.455-.613.445-.593.465-.571.466-.54.466-.508.465-.498.476-.476.466-.434.455-.423.466-.402.444-.37.445-.36.434-.328.434-.318.857-.614.666-.412.604-.35.603-.328.624-.317 1.196-.54 1.207-.487 1.217-.412 1.206-.36 1.206-.286 1.175-.233 1.175-.19 1.153-.138 1.133-.095 1.1-.053 1.08-.01 1.047.01 1.016.042.985.074.941.085.91.106.858.127.815.137.772.138.72.148.667.148.635.159.55.148.476.127.434.127.233.074.17.053.126.043.18.052.159.053-.117-.031.18.052.17.064-.16-.053.17.053.148.063-.571-.19 13.218 3.312-12.647 5.059.127-.053-.042.021.085-.042-.127.063-.148.064.116-.064-.106.053h.01l-.137.064-.17.074-.18.085.075-.032-.392.19.043-.02-.434.21.053-.031-.455.243.095-.052-.476.254.042-.022-.476.265.116-.074-.455.286.138-.096-.434.286.159-.106-.392.275.19-.137-.18.137.128-.105-.16.137.18-.159-.147.138.19-.19-.127.137.243-.286-.105.127.264-.38-.074.126.307-.603-.042.117.254-.826-.022.116-5.227-5.196.275-.053h-.01l.327-.074.381-.074.392-.074.444-.084.466-.075.466-.084.529-.074 1.058-.138 1.122-.106 1.143-.063h.635l.603.01.931.064.942.106.931.137.921.19.9.223.899.265.889.296.857.328.857.37.826.392.836.423.804.455.794.477.772.507.752.53.74.56.73.572.7.603.687.614.667.646.656.666.635.678.603.687.593.71.571.73.55.751.52.751.507.762.476.794.455.794.434.804.413.836.296.656.265.646.243.635.223.624.19.625.18.603.159.603.148.614.212 1.122.158 1.079.106.995.042.508.022.476.02.455v.402l.011.413-.01.402-.01.35-.011.327-.022.34-.031.285-.021.254-.022.211-.02.244-.033.211.011-.074-.021.149-.021.169-.022.106.011-.043-1.841 11.006-6.18-9.28.137.2-.064-.084-.084-.117.074.096-.085-.117-.095-.137v.02l-.106-.147.032.042-.138-.18.021.032-.148-.201.032.042-.18-.222-.18-.233.042.053-.2-.243-.223-.265.042.053-.232-.286.01.021-.254-.296.032.042-.265-.307.021.022-.285-.328.042.052-.614-.666.053.063-.667-.698.075.074-.73-.72.094.085-.783-.73.096.084-.826-.74.095.095-.867-.73.127.105-.91-.709.148.106-.953-.667.117.075-.71-.466.085.053-.72-.455.096.063-.73-.434.084.043-.74-.413.116.063-.752-.402.085.043-.762-.381.095.042-.772-.37.116.052-.772-.338.074.032-.773-.328.096.042-.794-.318.095.043-.794-.297.085.032-.804-.275.116.042-.815-.254.085.021-.815-.232.095.02-.815-.221.096.031-.826-.2.096.02-.837-.18.085.011-.836-.17.117.022-.847-.138.085.011-.847-.127.106.01-.847-.105.085.01-.847-.095.095.01-.857-.073.117.01-.858-.053h.085l-.857-.032h.085l-.858-.02h.096-.857.105l-.857.02h.085l-.857.032h.095l-.868.053.106-.01-.857.084.084-.01-.857.095.095-.021-.656.084.106-.01-.656.106.138-.032-.657.127.127-.021-.656.137.095-.02-.645.147.116-.02-.645.168.095-.031-.646.19.106-.021-.645.201.116-.042-.635.233.095-.043-.635.244.106-.043-.635.254.106-.042-.624.275.148-.063-1.228.592.19-.106-1.195.657.19-.106-1.164.709.19-.127-1.11.762.169-.127-1.069.815.19-.16-1.026.869.18-.149-.974.91.149-.137-.466.476.085-.095-.445.487.085-.085-.424.498.096-.127-.413.518.085-.106-.392.519.074-.106-.38.53.105-.149-.307.476.074-.127-.296.487.106-.17-.561 1.017.116-.212-.497 1.048.074-.17-.222.53.042-.096-.211.54.042-.116-.19.529.031-.106-.17.54.032-.117-.158.54.031-.116-.148.529.032-.117-.127.53.032-.149-.106.519.021-.117-.085.508.022-.169-2.657 19.123z" style="fill:#012063;fill-opacity:1;fill-rule:nonzero;stroke:#012063;stroke-width:.0105828px;stroke-linecap:butt;stroke-linejoin:round;stroke-miterlimit:4;stroke-dasharray:none;stroke-opacity:1" transform="translate(28.44 .476)"/><path d="M103.358 96.262c1.471-2.307 3.879-8.334 1.365-15.663-1.26-3.513-3.355-4.217-7.445-5.725.842-.503 2.519-1.006 3.672-1.402-3.148-3.419-7.968-5.927-12.477-5.223-1.783.201-3.46.704-4.72 2.91 2.625-.502 6.71.805 8.911 2.514 8.18 6.222 7.55 17.567-.1 22.89-2.101 1.408-5.556 2.71-8.075 2.81-3.773.1-6.921-.503-9.54-1.402.418.1 5.873.9 11.635-.805-2.83-2.01-5.032-5.021-5.974-6.328-2.725-3.815-11.635-18.07-1.365-37.251-3.561.804-7.022 2.211-10.064 5.725-4.085 4.519-5.133 10.043-4.82 13.757.312 3.816 1.783 6.525 2.095 7.229-1.884-.403-4.297-4.218-4.297-4.218s-.524 2.81-.524 4.117c0 0-1.47 18.673 17.61 23.896 9.017 2.407 19.187-.201 24.113-7.831z" style="fill:#fff;fill-opacity:1;fill-rule:evenodd;stroke:none;stroke-width:.264583" transform="translate(28.44 .476)"/><path d="m99.718 93.79-.106.165.143-.228-.053.085.143-.249-.059.106.148-.27-.058.106.148-.286-.031.069.153-.312-.047.1.148-.328-.043.095.154-.349-.042.1.148-.364-.037.09.143-.387-.027.08.143-.402-.042.127.132-.418-.021.068.132-.439-.037.143.122-.455-.027.1.111-.47-.037.164.201-.984-.042.227.154-1.042-.022.19.053-.545-.01.138.042-.561-.01.11.026-.57v.148l.005-.588v.138l-.01-.593.004.133-.031-.609.01.148-.047-.614.01.138-.069-.624.016.132-.09-.64.021.148-.116-.651.032.159-.143-.657.032.133-.17-.667.037.138-.19-.678.048.16-.223-.684.058.17-.116-.323.058.153-.127-.306.085.195-.265-.566.154.297-.291-.508.19.306-.312-.46.222.296-.344-.418.265.297-.365-.376.275.254-.402-.344.29.233-.428-.312.249.164-.466-.291.217.132-.497-.275.201.106-.54-.26.143.064-.571-.249.121.048-.613-.249.074.032-.656-.254.031.01-.698-.259.032.01-9.636-3.529 8.493-4.852.365-.185.587-.265.609-.243.582-.217.566-.196.53-.18.502-.164-.043.01.456-.153-1.736 7.223-.609-.63.16.16-.646-.604.158.138-.682-.577.164.137-.71-.545.175.122-.735-.508.185.122-.762-.471.206.116-.783-.428.207.106-.805-.387.239.106-.815-.333.243.09-.83-.286.253.08-.841-.233.296.068-.846-.169.232.037-.428-.063.153.02-.423-.047.159.016-.424-.032.191.01-.429-.01h.164-.428.164l-.423.016.216-.016-.428.043.164-.022-.423.059.037-.006-.662.09.302-.053-.651.138.29-.069-.317.09.244-.08-.312.112.227-.085-.312.127.27-.122-.302.149.27-.143-.296.17.27-.17-.291.196.259-.191-.286.228.249-.212-.275.254.243-.244-.264.286.19-.217-.26.318.18-.238-.253.36.158-.239-.238.392-4.397-6.651.699-.1.873-.054.846.01.836.059.831.106.804.137.815.186.789.211.778.249.762.275.746.302.735.338.72.365.693.403.672.428.624.455.932.752.878.799.82.836.757.873.698.905.635.936.577.958.508.99.444 1.005.381 1.01.323 1.038.26 1.047.19 1.053.132 1.053.069 1.058.01 1.064-.052 1.053-.111 1.048-.175 1.042-.238 1.027-.291 1.016-.355 1-.412.984-.471.958-.524.926-.582.9-.646.878-.698.836-.752.804-.804.762-.857.72-.92.682-.599.386-.582.344-.587.318-.587.296-.62.296-.666.291-1.228.477-.698.238-.667.206-.672.185-.693.164-.688.143-.683.111-.714.085-.714.048-.863.016-.81-.011-1.502-.064-1.477-.127-1.418-.19-1.36-.249-1.301-.296-1.238-.339-34.368-11.011 1.217-4.704 34.32 6.863-.026-.005.079.016-.111-.022.11.022-.137-.022.16.022.184.026-.137-.016.19.021.207.022-.048-.005.238.026-.042-.005.259.021-.069-.005.28.021h-.026l.302.022-.053-.005.323.02-.085-.004.339.016-.043-.005.36.01h-.032l.376.011-.063-.005.391.005h-.09l.831-.01-.127.004.889-.037-.138.005.937-.068-.143.015.979-.105-.153.02 1.01-.142-.164.026 1.043-.19-.186.037 1.064-.238-.185.047 1.074-.29-1.471 7.783-.587-.434-.635-.508-.604-.524-.566-.518-.545-.524-.513-.524-.482-.518-.455-.508-.428-.498-.387-.476-.37-.455-.333-.434-.302-.392-.275-.365-.238-.328-.222-.307-.307-.434-.339-.502-.386-.588-.397-.64-.423-.704-.434-.767-.445-.825-.45-.895-.444-.952-.44-1.005-.428-1.07-.413-1.121-.391-1.18-.365-1.233-.334-1.29-.29-1.345-.25-1.397-.206-1.444-.148-1.493-.09-1.545-.021-1.56.01-.826.032-.83.053-.832.07-.84.089-.853.106-.852.127-.873.153-.884.175-.883.196-.9.222-.905.243-.904.27-.926.297-.932.317-.926.344-.942.37-.952.402-.952.424-.958.45-.963.481-.98.492-.941 4.921 6.329-.667.158.101-.026-.661.174.11-.031-.66.195.116-.037-.656.212.158-.053-.656.238.143-.058-.646.265.16-.07-.641.292.164-.08-.635.318.153-.08-.635.35.18-.106-.624.386.175-.116-.62.423.175-.127-.608.46.153-.121-.603.503.164-.143-.593.54.148-.143-.582.587.143-.154-.571.635.042-.047-.37.423.08-.09-.36.429.079-.095-.344.433.09-.11-.323.438.08-.11-.308.444.059-.085-.291.45.068-.116-.275.455.069-.117-.254.45.08-.148-.472.91.1-.212-.412.916.095-.217-.354.915.069-.206-.302.905.069-.212-.249.9.048-.196-.201.883.042-.211-.153.867.031-.19-.11.841.02-.222-.063.82.01-.19-.031.788.005-.206.005.756-.005-.216.042.72-.015-.186.074.698-.022-.164.096.678-.027-.17.117.646-.032-.143.132.614-.032-.138.149.588-.037-.138.158.556-.042-.133.164.519-.032-.106.164.487-.032-.1.165.45-.038-.09.165.407-.038-.09.16.37-.043-.09.148.333-.016-.037.132.291-.02-.047.116.243-.01-.021.11.233 3.985 8.71-9.398-2.53-.513-.185-.487-.217-.481-.264-.683-.44-.64-.502-.55-.498-.509-.502-.46-.498-.413-.481-.375-.46-.334-.435-.296-.402-.254-.354-.19-.275-.09-.133-.09-.137-.059-.085-.042-.063.032.042-.175-.26-.127-.253 8.112-.577v.01l.196-.91-.021.217-.059.28.027-.142-.027.17-.037.216.006-.032-.043.233-.042.26.005-.038-.047.297.005-.043-.048.318.006-.042-.096.672.01-.074-.084.682.01-.085-.036.329.01-.085-.026.312.01-.132-.015.29.005-.153-.005.265v-.09.159l-.016.217-.006.095.011-.228-.005.133-.006.153v-.037l-.005.138.005-.09-.005.158v.175-.063.206-.048.228-.043l.005.244v-.037l.011.264-.005-.074.016.286-.006-.026.016.301-.005-.095.026.323-.005-.021.026.338-.005-.095.069.72-.01-.133.1.773-.021-.127.132.825-.026-.143.169.868-.027-.137.207.91-.043-.164.254.942-.047-.16.296.97-.058-.18.354.989-.068-.18.407 1.005-.058-.132.227.503-.047-.096.243.508-.047-.1.254.508-.053-.1.275.507-.048-.084.291.508-.08-.127.313.508-.053-.085.323.503-.064-.101.344.503-.084-.117.365.498-.074-.096.386.498-.08-.1.403.491-.085-.105.423.486-.095-.105.445.476-.09-.095.465.47-.116-.11.492.46-.085-.08.508.455-.121-.105.534.444-.095-.08.555.435-.121-.09.582.423-.111-.08.603.413-.138-.09.635.397-.106-.063.657.386-.127-.069.682.37-.127-.068.71.36-.128-.064.736.344-.133-.058.768.322-.122-.047.794.312-.138-.053.82.291-.11-.037.851.275-.132-.042.878.254-.17-.042.858.211-.153-.037.857.18-.132-.026.857.153-.159-.021.863.122-.133-.022.863.096-.164-.01.867.063-.148-.011.868.037-.148-.005.862.005h-.153l.862-.021-.148.005.858-.053-.164.016.851-.085-.142.016.846-.111-.164.021.836-.143-.153.032.83-.175-.142.032.82-.196-.17.043.81-.228-.159.048.8-.26-.16.053.784-.285-.17.063.773-.317-.148.063.756-.349-.18.09.736-.381-.143.08.72-.408-.17.1.704-.433-.153.1.682-.465-.164.116.656-.497-.148.121.635-.524-.159.138.614-.556-.137.133.587-.582-.159.164.561-.614-.127.148.535-.64-.133.164.508-.672-.132.18zm6.746 5.742-.64.846-.667.794-.704.773-.74.73-.757.688-.794.65-.815.614-.841.572-.863.54-.878.492-.894.46-.92.423-.927.381-.947.35-.952.312-.974.275-.979.238-.979.201-.995.17-1 .132-1 .1-1.016.064-1.01.026-1.011-.005-1.01-.042-1.022-.074-1.005-.111-1.011-.143-1.005-.18-.995-.206-1.01-.254-1.027-.297-.974-.312-.947-.339-.92-.36-.89-.375-.862-.402-.836-.424-.81-.439-.772-.455-.757-.476-.73-.497-.693-.508-.667-.514-.646-.534-.614-.55-.592-.556-.566-.572-.535-.576-.513-.588-.487-.587-.455-.593-.444-.603-.418-.614-.387-.598-.375-.608-.35-.614-.322-.608-.307-.609-.291-.603-.275-.624-.471-1.16-.413-1.169-.355-1.137-.29-1.1-.244-1.054-.196-1.01-.153-.964-.117-.904-.084-.826-.032-.391-.027-.376-.02-.365-.011-.334-.01-.322-.006-.286-.006-.275v-.26l.006-.227v-.212l.01-.206.006-.133-.006.08.006-.207.016-.174-.006.058.006-.042-.011.29v-.052l.005-.387.027-.428.037-.424.042-.412.095-.762.1-.73.054-.355.058-.339.048-.285.042-.249.037-.206-.01.047.036-.217.032-.158-.058.375.053-.487 3.513-10.535 4.757 9.52-.275-.477.037.053.043.069.042.069-.021-.037.058.09-.042-.064.074.106.169.249-.032-.048.207.291-.053-.074.243.328-.042-.058.275.36-.069-.09.302.37-.08-.095.328.38-.1-.11.339.37-.133-.143.355.355-.159-.148.365.328-.222-.19.37.29-.322-.227.37.238-.296-.175.185.1-.297-.147.18.084-.301-.127.18.069-.355-.116.175.047-5.143 6.085-.075-.153.037.069-.1-.207-.132-.28-.154-.333-.174-.392-.196-.46-.196-.498-.201-.545-.201-.582-.201-.635-.196-.688-.18-.72-.159-.756-.148-.804-.116-.842-.09-.878-.053-.92-.01-.969.036-.984.08-1.027.137-1.053.19-1.069.25-1.084.306-1.106.37-1.122.435-1.122.513-1.127.56-1.095.334-.582.344-.566.355-.55.375-.54.403-.556.423-.54.44-.529.433-.497.667-.736.73-.735.751-.688.762-.63.773-.582.788-.54.804-.497.8-.44.793-.396.804-.365.8-.323.804-.291.793-.254.778-.227.768-.207 10.122-2.407-4.953 9.455.048-.09-.44.89.038-.085-.413.883.042-.084-.386.873.032-.085-.36.868.037-.095-.333.857.037-.1-.313.851.032-.08-.29.842.03-.095-.264.83.032-.1-.243.826.026-.096-.217.815.021-.084-.195.81.026-.112-.175.799.016-.09-.153.794.016-.106-.133.783.016-.111-.11.772.01-.079-.1.762.01-.095-.08.751.011-.106-.058.746.005-.09-.048.736.006-.111-.027.725.006-.095-.011.714v-.132l.021 1.402-.005-.19.08 1.36-.017-.175.127 1.312-.02-.18.18 1.275-.022-.159.217 1.228-.032-.17.26 1.186-.038-.159.291 1.143-.037-.143.318 1.09-.042-.143.343 1.043-.042-.132.365.994-.047-.121.375.942-.053-.127.392.894-.048-.1.397.84-.053-.11.397.788-.058-.106.397.73-.042-.074.38.677-.058-.1.37.619-.031-.058.35.566-.059-.09.333.508-.042-.064.307.45-.037-.047.275.386-.032-.048.19.265-.026-.032.223.296-.022-.026.249.333-.032-.037.275.36-.016-.021.297.386-.058-.074.328.402-.027-.037.35.424-.059-.064.37.429-.052-.058.391.439-.069-.074.418.444-.068-.069.439.445-.085-.08.455.44-.09-.085.471.434-.095-.085.492.423-.138-.116.508.407-.121-.095 7.82 5.805-9.937 2.688-1.249.28-1.211.217-1.175.164-1.122.122-1.08.08-1.015.042-.942.01-.466-.005-.423-.005-.397-.016-.407-.01-.387-.027-.338-.02-.328-.027-.318-.027-.28-.032-.238-.026-.254-.027-.238-.037.047.011-.206-.032-.233-.037-.153-.032-.07-.01 2.207-8.509 1.011.323-.175-.053 1.059.291-.19-.047 1.11.254-.19-.043 1.159.212-.201-.032 1.217.164-.207-.021 1.275.111-.2-.01 1.328.052-.149-.005.683.005-.1.005.703-.01-.222.005.481-.032-.243.021.503-.058-.18.027.513-.085-.153.026.529-.105-.17.037.54-.127-.148.037.545-.154-.111.032.545-.164-.132.042.54-.185-.175.063 1.063-.412-.153.063.518-.227-.137.063.497-.238-.1.053.487-.249-.106.058.46-.254-.138.08.44-.26-.143.09.407-.264-.243.17.698-.52-.206.165.656-.55-.196.169.614-.577-.19.196.571-.614-.17.19.53-.634-.17.216.487-.666-.148.217.445-.683-.133.212.403-.704-.122.228.36-.725-.111.238.312-.741-.096.238.27-.757-.08.244.223-.767-.063.243.18-.778-.053.243.132-.788-.032.265.085-.794-.021.233.042-.805-.005.276-.005-.8.005.244-.053-.804.026.259-.1-.804.037.243-.148-.799.058.265-.196-.794.069.249-.243-.789.084.244-.29-.773.094.233-.338-.762.116.238-.386-.751.127.238-.44-.736.138.212-.486-.714.158.217-.54-.699.16.196-.588-.677.18.195-.635-.65.185.174-.693-.624.196.164-.741-.598.18.137-.434-.312.206.138-.476-.302.19.117-.507-.291.185.095-.54-.275.175.09-.561-.26.18.08-.582-.238.148.058-.598-.217.185.063-.603-.19.164.048-.614-.17.19.048-.608-.138.206.043-.603-.106.196.032-.598-.08.26.027-.577-.037.259.005-.566-.005.301-.006-.534.032.376-.037-9.79 1.429 5.202-8.525.418-.592.444-.55.487-.525.519-.481.54-.423.555-.381.566-.328.572-.28.555-.228.55-.19.583-.17.947-.201.83-.111.524-.07.62-.057.613-.027.593-.005.603.016.603.047.588.064.619.095 1.111.222 1.122.313 1.08.37 1.058.434 1.026.492.995.545.958.598.915.635.873.677.841.71.81.756 5.492 5.683-7.021 2.413-.508.169.032-.01-.503.169.016-.006-.503.175.09-.032-.492.18.095-.037-.46.185.201-.084-.413.185.143-.069-.185.095.217-.116-.17.095-.666-7.958.756.28.73.27.71.275.714.286.699.312.709.344.709.387.698.433.704.514.682.587.64.65.583.715.524.762.465.815.387.82.195.476.18.482.275.847.233.825.201.804.175.8.143.798.116.783.085.762.063.762.037.746.011.73-.01.726-.032.693-.048.682-.074.704-.185 1.26-.238 1.18-.143.608-.154.577-.164.54-.17.518-.179.503-.175.476-.19.46-.19.45-.196.423-.196.402-.196.376-.206.376-.201.344-.217.354z" style="fill:#012063;fill-opacity:1;fill-rule:nonzero;stroke:#012063;stroke-width:.00529139px;stroke-linecap:butt;stroke-linejoin:round;stroke-miterlimit:4;stroke-dasharray:none;stroke-opacity:1" transform="translate(28.44 .476)"/><path d="M51.613 83.578c0-15.461 12.541-28.002 28.003-28.002 15.466 0 28.002 12.54 28.002 28.002 0 15.467-12.536 28.002-28.002 28.002-15.462 0-28.003-12.535-28.003-28.002z" style="fill:#012063;fill-opacity:1;fill-rule:evenodd;stroke:none;stroke-width:.264583" transform="translate(28.44 .476)"/><path d="M18.553 83.578c0-15.461 12.54-28.002 28.002-28.002 15.467 0 28.002 12.54 28.002 28.002 0 15.467-12.535 28.002-28.002 28.002-15.462 0-28.002-12.535-28.002-28.002zM74.557 83.578c0-15.461 12.54-28.002 28.002-28.002 15.467 0 28.002 12.54 28.002 28.002 0 15.467-12.535 28.002-28.002 28.002-15.461 0-28.002-12.535-28.002-28.002z" style="fill:#012063;fill-opacity:1;fill-rule:evenodd;stroke:none;stroke-width:.264583" transform="translate(28.44 .476)"/><path d="m51.725 83.848 3.883-21.197H42.803c-2.413 0-4.513 1.704-4.931 4.016l-3.149 17.181H18.765l33.483-42.199H23.701c1.466 2.413 5.038 3.318 3.778 7.032l-39.574 49.93h44.088l-3.884 21.097H45.11l3.884-21.097h15.954c-4.09-4.72-5.874-10.244-6.297-14.763ZM135.207 81.134c-1.995-7.128-10.826-13.451-15.139-15.356-3.36-1.508-6.201-2.413-8.725-2.815-1.471-.201-3.466-.402-4.73.1-1.996.805-1.26 3.413-.842 5.123.317.804.529 1.502 1.265 2.608.735 1.207 2.524 2.609 5.783 3.916-.635.301-2.212.804-3.365 1.005 1.259 1.805 2.73 3.508 4.307 4.815 3.365 2.81 4.63 2.91 4.63 2.91s.418-1.904.206-3.714c-.106-.9-.418-1.503-.942-1.905-1.476-1.206-2.63-2.407-3.682-4.016-2.101-3.111-4.731-8.329-.212-9.032 4.836 3.714 7.572 10.138 7.678 14.852.211 8.938-5.572 16.764-11.144 20.68-17.139 12.042-33.96 5.619-33.96 5.619s5.678 7.63 15.88 10.239c11.773 2.91 27.541-.699 31.324-13.25.948 1.608.212 6.027.212 6.027s6.831-4.921 10.197-12.049c2.1-4.714 2.836-9.836 1.259-15.757z" style="fill:#fff;fill-opacity:1;fill-rule:evenodd;stroke:none;stroke-width:.264583" transform="translate(28.44 .476)"/><path d="M78.277 77.63c.317-2.597 1.47-5.799 3.159-8.296 3.894-5.704 11.048-9.705 17.996-10.504 9.16-1.1 18.525 1 26.002 6.101 5.154 3.503 8.836 8.7 8.836 8.7s.947-5.197-1.682-10.8c-3.577-7.498-11.155-13.9-19.05-14.202-2.423-.101-5.37.502-6.735.799.106-1.196 5.154-3.398 5.154-3.398s-12.943-4.804-23.367 1.8c-3.683 2.497-8.943 7.302-10.737 17.9-1.052 6.101.424 11.9.424 11.9z" style="fill:#fff;fill-opacity:1;fill-rule:evenodd;stroke:none;stroke-width:.264583" transform="translate(28.44 .476)"/><path d="M103.358 96.262c1.471-2.307 3.879-8.334 1.365-15.663-1.26-3.513-3.355-4.217-7.445-5.725.842-.503 2.519-1.006 3.672-1.402-3.148-3.419-7.968-5.927-12.477-5.223-1.783.201-3.46.704-4.72 2.91 2.625-.502 6.71.805 8.911 2.514 8.18 6.222 7.55 17.567-.1 22.89-2.101 1.408-5.556 2.71-8.075 2.81-3.773.1-6.921-.503-9.54-1.402.418.1 5.873.9 11.635-.805-2.83-2.01-5.032-5.021-5.974-6.328-2.725-3.815-11.635-18.07-1.365-37.251-3.561.804-7.022 2.211-10.064 5.725-4.085 4.519-5.133 10.043-4.82 13.757.312 3.816 1.783 6.525 2.095 7.229-1.884-.403-4.297-4.218-4.297-4.218s-.524 2.81-.524 4.117c0 0-1.47 18.673 17.61 23.896 9.017 2.407 19.187-.201 24.113-7.831z" style="fill:#fff;fill-opacity:1;fill-rule:evenodd;stroke:none;stroke-width:.264583" transform="translate(28.44 .476)"/><path d="M10.044 16.93h5.353l1.653-5.336 1.656 5.336h5.35l-4.328 3.3 1.653 5.333-4.33-3.296-4.33 3.296 1.654-5.333zM148.044 16.938h5.355l1.65-5.344 1.662 5.344h5.344l-4.328 3.292 1.662 5.333-4.34-3.29-4.328 3.29 1.662-5.333z" style="fill:#c5a472;fill-opacity:1;fill-rule:evenodd;stroke:none;stroke-width:.264583" transform="translate(28.44 .476)"/><path d="M49.116 99.854v24.002h124.792V99.854Z" style="fill:#012063;fill-opacity:1;fill-rule:evenodd;stroke:none;stroke-width:.264583" transform="translate(28.44 .476)"/><path d="m149.695 106.564-1.831 10.435h2.9c1.661 0 3.047-.455 4.137-1.355 1.101-.889 1.8-2.18 2.106-3.852.286-1.662.032-2.953-.74-3.852-.784-.9-2-1.365-3.673-1.376zm-3.25-3.408h6.69c1.915.022 3.491.381 4.74 1.112 1.26.72 2.138 1.735 2.656 3.026.519 1.291.625 2.794.329 4.498-.307 1.714-.953 3.217-1.916 4.508-.974 1.28-2.212 2.286-3.714 3.016-1.514.72-3.218 1.08-5.133 1.09h-6.688zm-36.489 0h12.827l-.593 3.344h-8.974l-.614 3.514h8.233l-.592 3.344h-8.234l-.656 3.704h9.165l-.582 3.344h-13.017zm-37.632 0H85.15l-.592 3.344h-8.975l-.613 3.514h8.233l-.593 3.344h-8.233l-.656 3.704h9.165l-.582 3.344H69.287Zm-15.493 0h3.852L58.249 117h8.614l-.603 3.407H53.794Zm81.678-.211h3.852l-3.048 17.25h-3.217l-6.784-10.372-1.862 10.583h-3.852l3.037-17.25h3.217l6.784 10.371zm34.023-.212c1.958.032 3.482.56 4.562 1.587 1.079 1.027 1.534 2.382 1.365 4.043h-3.98c.022-.751-.211-1.344-.677-1.767-.465-.424-1.164-.635-2.085-.646-.91.01-1.63.18-2.158.498-.54.317-.847.74-.953 1.259-.116.624.159 1.111.836 1.44.677.338 1.831.676 3.44.994 1.883.434 3.153 1.1 3.799 2.032.645.931.836 2.042.582 3.344-.212 1.111-.688 2.053-1.45 2.847-.751.793-1.693 1.407-2.815 1.83-1.122.424-2.328.636-3.63.636-2.17-.011-3.83-.55-5.016-1.609-1.185-1.058-1.672-2.519-1.46-4.381h3.957c-.042.846.244 1.502.826 2 .582.497 1.429.74 2.54.751.793 0 1.481-.18 2.042-.529.561-.339.9-.804 1.016-1.376.138-.666-.095-1.185-.688-1.545-.592-.36-1.63-.677-3.1-.952-1.82-.328-3.144-.92-3.98-1.789-.825-.857-1.11-2.084-.836-3.693a5.055 5.055 0 0 1 1.418-2.667c.752-.74 1.683-1.312 2.805-1.704 1.111-.391 2.328-.592 3.64-.603zm-74.979-.021c1.503.021 2.805.275 3.916.783 1.1.508 1.979 1.196 2.625 2.064a6.029 6.029 0 0 1 1.195 2.931h-4.233c-.254-.646-.73-1.175-1.418-1.598-.698-.413-1.577-.624-2.624-.646a6.497 6.497 0 0 0-2.942.72 6.813 6.813 0 0 0-2.276 1.947c-.613.826-1.016 1.778-1.217 2.858-.264 1.65.021 2.995.847 4.01.825 1.027 2.032 1.556 3.63 1.577 1.354-.031 2.53-.37 3.513-1.037.984-.656 1.651-1.418 2.022-2.307h-5.27l.581-3.26h9.377l-.18 1.017c-.328 1.767-1.005 3.323-2.032 4.677a11.201 11.201 0 0 1-3.81 3.196c-1.503.783-3.143 1.175-4.9 1.186-1.788-.011-3.301-.403-4.55-1.186a6.699 6.699 0 0 1-2.699-3.196c-.55-1.354-.677-2.91-.38-4.677a10.804 10.804 0 0 1 2.031-4.667 11.077 11.077 0 0 1 3.831-3.196c1.513-.783 3.175-1.175 4.963-1.196z" style="fill:#fff;fill-opacity:1;fill-rule:nonzero;stroke:none;stroke-width:.264583" transform="translate(28.44 .476)"/><path d="m149.695 106.966.402-.328-1.842 10.435-.391-.477h2.9-.022l.614-.02h-.032l.582-.064-.02.01.55-.105h-.032l.54-.149-.043.011.508-.19-.032.02.477-.232-.032.021.444-.275-.02.01.423-.306-.032.02.391-.348-.031.02.36-.39-.032.03.317-.422-.01.031.275-.465-.011.032.243-.498-.02.032.21-.54-.01.032.17-.571v.031l.127-.613v.042l.074-.614v.032l.031-.572v.032l-.02-.529v.032l-.064-.498.01.043-.127-.466.022.053-.17-.434.021.053-.211-.392.031.043-.275-.36.043.042-.318-.317.042.042-.36-.275.043.021-.392-.233.043.032-.434-.19.042.01-.476-.148.032.01-.519-.116.032.01-.561-.073.032.01-.604-.032h.011zm2.91-.804.635.032.593.074.56.116.519.159.476.212.434.254.402.306.35.36.296.402.243.434.18.477.138.518.074.54.021.571-.032.603-.084.646-.138.646-.19.592-.212.572-.265.529-.307.497-.338.455-.381.424-.423.38-.445.329-.487.296-.508.254-.54.201-.57.159-.594.116-.613.064-.635.02h-3.387l1.99-11.238zm-6.498-3.408h7.038l.72.032.687.053.667.085.624.127.604.169.582.19.54.244.507.264.487.307.445.328.402.36.37.392.339.412.296.445.265.476.222.508.19.519.149.55.095.56.063.583.021.603-.01.614-.053.635-.095.656-.138.656-.17.635-.2.614-.233.593-.265.571-.296.56-.339.53-.36.519-.391.486-.413.455-.444.434-.477.413-.497.381-.518.35-.55.317-.572.296-.593.265-.614.222-.635.201-.656.159-.677.127-.688.084-.709.053-.72.022h-7.175zM143.8 120.48l-.391-.476h6.688-.01l.708-.021-.02.01.687-.052h-.021l.677-.085h-.032l.657-.127-.022.01.625-.158-.021.01.613-.19-.02.01.592-.222-.021.01.571-.253-.021.01.56-.285-.02.01.518-.307-.01.011.497-.339-.021.022.476-.37-.01.01.444-.381-.021.01.433-.412-.02.01.401-.434-.01.022.37-.477-.01.022.349-.498-.021.021.317-.508-.01.022.285-.54-.01.021.254-.55v.021l.222-.571-.01.02.2-.592-.01.032.158-.614v.01l.127-.624v.021l.085-.635v.022l.053-.604v.022l.01-.593v.021l-.02-.571.01.032-.063-.55v.02l-.096-.529.011.032-.138-.518.011.031-.18-.497.01.032-.211-.466.021.021-.243-.444.01.031-.275-.412.021.031-.317-.391.021.021-.35-.37.033.032-.381-.34.02.022-.422-.317.031.02-.455-.285.032.021-.487-.254.032.01-.519-.221.032.01-.55-.19.021.01-.571-.158.02.01-.602-.127.02.01-.634-.094.021.01-.677-.063h.02l-.698-.021h.011-6.688l.402-.329zm-34.182-17.726h13.652l-.741 4.149h-9.313l.402-.328-.624 3.513-.392-.476h8.71l-.73 4.148h-8.573l.403-.328-.657 3.704-.391-.476h9.64l-.73 4.148h-13.831zm-2.307 17.726-.392-.476h13.017l-.392.339.582-3.344.403.465h-9.652l.794-4.508h8.572l-.392.339.593-3.345.391.466h-8.71l.763-4.318h9.302l-.392.339.593-3.344.392.465h-12.827l.403-.328zm-35.326-17.726h13.652l-.74 4.149h-9.314l.403-.328-.625 3.513-.391-.476h8.71l-.73 4.148h-8.573l.402-.328-.656 3.704-.392-.476h9.641l-.73 4.148H68.811Zm-2.307 17.726-.391-.476h13.017l-.392.339.582-3.344.402.465h-9.651l.793-4.508h8.572l-.391.339.593-3.345.391.466h-8.71l.762-4.318h9.303l-.392.339.593-3.344.391.465H72.324l.402-.328zm-13.186-17.726h4.678l-2.53 14.319-.391-.477h9.09l-.74 4.212H53.317Zm-2.307 17.726-.391-.476H66.26l-.392.339.593-3.408.402.466h-9.1l2.528-14.308.392.465H56.83l.402-.328zm83.985-17.937h4.667l-3.185 18.054h-3.768l-6.91-10.551.74-.148-1.926 10.91h-4.667l3.175-18.054h3.778l6.9 10.562-.73.148zm-1.312 12.064-7.345-11.228.339.18h-3.217l.402-.329-3.048 17.25-.391-.476h3.852l-.392.339 2.032-11.588 7.344 11.228-.338-.19h3.217l-.392.338 3.038-17.25.402.466h-3.852l.391-.328zm35.685-12.276.74.042.7.085.666.137.624.18.582.233.55.296.498.34.466.39.402.435.35.465.285.508.222.53.148.57.096.593.031.625-.053 1.005h-4.762l-.01-.667v.043l-.032-.265.01.032-.053-.243.011.042-.074-.222.021.042-.095-.212.021.043-.127-.201.032.042-.138-.19.021.042-.158-.17.031.032-.18-.148.032.032-.2-.138.03.021-.221-.105.031.01-.243-.085.032.011-.275-.074.031.01-.285-.052.02.01-.306-.032h.021l-.339-.02h.032l-.328.01h.021l-.317.032h.021l-.296.031h.02l-.274.053.021-.01-.254.074.021-.01-.243.084.031-.01-.222.095.032-.011-.212.106.032-.01-.19.116.031-.022-.169.138.021-.021-.148.137.032-.031-.127.158.021-.042-.106.17.021-.043-.084.17.02-.043-.063.18.011-.042-.053.2.01-.052-.02.222v-.053l.01.212-.01-.085.042.201-.021-.074.084.19-.042-.063.127.17-.042-.053.158.158-.042-.032.19.138-.031-.021.233.127-.032-.01.275.126-.021-.01.317.127-.01-.011.37.127h-.021l.413.127-.01-.01.444.126h-.01l.496.117h-.01l.54.127.592.116.699.18.635.201.592.233.54.254.476.286.424.317.36.35.306.37.244.402.2.413.149.434.106.455.063.465v.477l-.031.497-.075.518-.105.434-.117.413-.159.402-.18.392-.2.38-.244.36-.265.34-.285.327-.307.307-.328.286-.35.265-.36.254-.38.222-.402.211-.413.201-.434.17-.434.159-.455.137-.455.117-.476.095-.476.063-.477.053-.497.032-.508.01-.804-.031-.773-.074-.73-.138-.677-.19-.646-.233-.593-.297-.55-.349-.497-.391-.233-.233-.212-.223-.2-.243-.18-.254-.17-.264-.138-.276-.127-.285-.105-.286-.096-.307-.074-.307-.053-.328-.031-.328-.022-.328-.01-.35.021-.36.064-.719h4.72l.01.71v-.043l.032.296-.01-.042.063.275-.022-.053.096.254-.022-.042.117.243-.021-.042.148.222-.032-.042.18.212-.032-.032.201.19-.031-.02.233.169-.043-.022.254.148-.031-.02.275.126-.032-.01.307.106-.043-.011.34.085-.033-.011.35.064h-.032l.38.031h-.02l.402.01-.043.011.583-.042-.053.01.54-.105-.054.01.487-.158-.053.021.445-.233-.042.032.2-.138-.031.022.18-.149-.021.022.158-.149-.031.032.137-.17-.032.043.117-.18-.021.043.095-.191-.01.032.073-.19-.01.042.053-.212-.011.042.032-.243v.063l-.01-.233.01.064-.032-.222.01.074-.063-.201.021.063-.095-.19.032.053-.138-.17.043.043-.17-.16.043.043-.202-.148.032.021-.243-.137.032.02-.286-.126.01.01-.317-.127h.021l-.37-.116.01.01-.402-.116h.01l-.444-.116v.01l-.486-.116.01.01-.529-.105-.677-.148-.635-.16-.593-.2-.55-.222-.498-.244-.455-.286-.412-.306-.37-.34-.329-.38-.254-.423-.212-.466-.137-.487-.095-.529-.021-.55.02-.593.085-.614.096-.423.127-.392.148-.38.17-.371.21-.36.234-.328.254-.328.285-.307.307-.286.328-.275.35-.243.36-.233.37-.222.402-.19.413-.18.423-.17.444-.137.445-.127.465-.106.466-.096.476-.063.487-.053.498-.032zm-.487.815h.021l-.486.031h.02l-.465.053.01-.01-.454.074.01-.01-.455.084h.021l-.444.106.021-.01-.434.126.021-.01-.423.137h.01l-.412.148h.021l-.391.17.02-.011-.38.19.021-.01-.36.201.021-.01-.338.222.01-.011-.317.233.021-.01-.307.253.01-.021-.285.275.021-.021-.264.286.02-.021-.243.296.022-.021-.223.307.022-.022-.19.328.01-.031-.159.338.01-.021-.137.35.01-.022-.116.36.01-.021-.084.38v-.042l-.074.593v-.032l-.021.54v-.032l.021.508v-.042l.074.476-.01-.042.127.444-.011-.053.18.413-.021-.053.232.37-.042-.042.286.339-.032-.032.339.307-.032-.021.381.286-.032-.022.424.254-.032-.02.476.243-.032-.011.53.212-.032-.011.571.18-.032-.01.614.169-.021-.01.667.137h-.01l.539.105.497.106.466.117.423.127.381.116.35.138.306.137.275.159.254.17.212.19.18.233.138.243.084.265.043.275.01.296-.042.296-.064.254-.095.233-.116.233-.138.212-.17.2-.19.18-.2.17-.234.159-.497.254-.54.18-.592.116-.625.042-.434-.02-.402-.043-.38-.064-.371-.095-.339-.116-.317-.148-.286-.17-.275-.2-.233-.223-.212-.243-.169-.265-.138-.286-.105-.307-.074-.317-.032-.328v-.328l.402.391h-3.958l.402-.36-.032.34v-.022l-.02.339v-.022l.01.328v-.02l.01.317v-.022l.032.307v-.02l.053.296-.01-.022.074.286-.011-.032.085.286-.01-.021.105.264-.01-.02.116.253-.01-.021.126.243-.01-.02.148.243-.01-.022.158.233-.021-.021.18.212-.011-.011.201.212-.021-.022.211.202-.02-.022.465.381-.042-.031.518.328-.042-.021.56.275-.042-.022.604.223-.032-.01.656.179-.032-.01.688.137-.021-.01.74.084-.031-.01.783.031h-.021l.487-.01-.021.01.476-.032h-.021l.465-.052h-.01l.455-.064h-.022l.455-.095-.02.01.444-.116-.021.01.433-.126h-.02l.423-.148h-.011l.413-.16-.022.011.392-.19-.021.01.38-.2-.02.01.36-.222-.022.01.35-.232-.022.01.328-.254-.02.021.317-.275-.022.021.286-.296-.01.021.275-.307-.021.022.243-.318-.021.032.222-.339-.01.021.19-.338-.01.021.169-.36-.011.021.138-.37-.011.021.116-.391v.031l.085-.412v.031l.074-.486v.042l.032-.466-.01.032v-.444.042l-.054-.423.011.042-.095-.413.01.042-.137-.391.021.042-.18-.38.021.041-.222-.36.032.043-.275-.339.031.043-.328-.318.043.032-.392-.286.032.021-.445-.264.032.021-.497-.243.02.01-.56-.222.021.01-.614-.19.021.01-.677-.18.01.011-.581-.127-.55-.127-.498-.127-.466-.127-.423-.127-.37-.127-.339-.137-.307-.138-.275-.148-.243-.18-.202-.2-.169-.234-.116-.254-.064-.285-.01-.286.031-.275.064-.244.074-.222.116-.212.127-.211.16-.18.18-.17.2-.158.222-.148.233-.127.254-.117.275-.085.286-.074.307-.063.317-.042.329-.022.36-.02.36.02.338.032.328.053.307.085.285.106.265.126.243.149.223.18.2.2.17.223.148.233.117.254.084.275.064.286.032.296v.296l-.402-.402h3.979l-.392.381.032-.603v.032l-.032-.572v.042l-.074-.56.01.052-.148-.518.022.042-.201-.487.02.043-.264-.466.032.042-.318-.423.022.032-.37-.402.031.031-.423-.36.031.022-.465-.307.042.021-.508-.265.032.011-.54-.222.032.021-.593-.18.032.01-.625-.126h.032l-.677-.085.032.01-.71-.042h.022zm-74.503-.836.572.02.56.043.53.064.529.084.497.117.477.137.476.17.444.19.424.201.402.233.38.243.36.265.34.286.317.296.296.318.265.338.243.35.222.37.201.37.17.392.148.391.116.413.106.413.138.878h-4.964l-.211-.476.01.032-.127-.222.021.031-.148-.211.021.02-.169-.2.021.021-.18-.19.022.02-.212-.18.021.011-.222-.169.021.021-.254-.169.032.021-.275-.148.031.01-.285-.126.031.01-.306-.106.02.011-.317-.095.032.01-.339-.074.022.01-.35-.052h.021l-.37-.032h.021l-.391-.021h.032l-.392.021h.021l-.38.032h.02l-.38.053h.031l-.37.074h.02l-.359.095h.021l-.36.117.022-.011-.35.148.022-.01-.339.169.021-.01-.328.18.021-.011-.317.2.01-.01-.296.212.01-.011-.285.233.01-.01-.275.253.022-.02-.265.264.01-.011-.243.286.01-.021-.243.306.022-.02-.223.317.011-.021-.201.328.01-.022-.18.34.011-.022-.158.35v-.012l-.149.36.011-.031-.116.38v-.02l-.106.39.01-.02-.084.391v-.031l-.064.603v-.032l-.021.571v-.031l.032.54-.01-.032.084.508-.01-.043.126.487-.01-.042.18.455-.022-.042.244.423-.032-.032.286.392-.032-.032.328.36-.032-.032.36.307-.042-.032.402.276-.042-.032.434.222-.043-.01.477.169-.043-.01.508.126-.042-.01.54.084-.032-.01.582.042h-.042l.497-.032h-.021l.487-.053h-.032l.465-.084-.02.01.444-.116-.032.01.434-.148-.032.01.413-.169-.022.011.392-.201-.032.01.381-.232-.02.01.348-.243-.01.01.317-.264-.021.021.296-.275-.02.021.274-.285-.02.031.232-.296-.01.021.2-.307-.01.032.18-.317-.01.031.147-.328.36.572h-5.746l.72-4.064h10.19l-.264 1.503-.138.666-.18.646-.211.645-.244.614-.285.593-.318.571-.35.561-.38.54-.413.508-.434.487-.455.455-.487.434-.497.402-.53.37-.55.339-.57.317-.593.286-.604.243-.624.212-.635.17-.635.137-.656.095-.667.064-.677.02-.688-.02-.646-.064-.635-.095-.613-.138-.572-.169-.56-.212-.54-.254-.508-.285-.477-.328-.444-.35-.402-.38-.381-.413-.339-.434-.307-.476-.264-.487-.244-.53-.2-.54-.149-.57-.116-.583-.075-.603-.031-.624.01-.635.053-.656.095-.678.149-.677.18-.656.211-.624.244-.614.285-.603.307-.582.36-.55.38-.54.414-.508.434-.487.465-.455.476-.434.508-.402.54-.37.55-.34.572-.317.603-.286.614-.243.624-.212.635-.169.646-.138.667-.105.677-.053zm-.656.836h.021l-.645.053h.021l-.635.095.021-.01-.624.137.021-.01-.614.169h.022l-.604.2.021-.01-.592.233.021-.01-.571.274.02-.01-.56.307.021-.01-.529.327.01-.01-.507.36.02-.022-.497.392.022-.01-.466.412.021-.021-.444.444.01-.01-.423.465.021-.02-.402.496.01-.02-.37.518.01-.01-.338.528.021-.02-.307.55.011-.022-.275.582.01-.02-.232.592v-.021l-.201.613.01-.031-.18.635.01-.022-.137.646v-.021l-.084.645v-.021l-.053.624v-.02l-.01.613v-.021l.031.592v-.031l.063.571v-.032l.106.561-.01-.031.148.54-.01-.032.19.518-.01-.031.221.497-.01-.021.254.465-.01-.031.285.444-.021-.032.317.413-.01-.021.349.391-.021-.031.38.36-.02-.022.423.339-.032-.021.455.307-.032-.022.487.276-.032-.011.508.233-.031-.01.529.2-.022-.01.55.17-.031-.012.582.138-.021-.01.603.095h-.021l.624.053h-.021l.656.02h-.032l.657-.02h-.022l.646-.053h-.021l.624-.096-.021.011.624-.138-.031.011.613-.17-.02.011.592-.2-.021.01.582-.244-.022.011.572-.275-.021.01.55-.306-.021.02.54-.338-.022.01.508-.36-.02.012.486-.381-.01.01.454-.413-.01.022.444-.445-.02.021.422-.476-.01.021.391-.497-.01.021.37-.518-.01.02.328-.539-.011.021.307-.56-.01.031.264-.582-.01.021.243-.592-.01.02.2-.613v.021l.17-.624v.021l.137-.645-.01.01.18-1.016.401.466h-9.376l.392-.328-.572 3.26-.402-.477h5.905l-.423.92-.201.34-.233.327-.254.329-.286.296-.317.296-.35.275-.37.265-.402.254-.423.212-.445.19-.455.148-.476.127-.487.085-.518.063-.53.032-.624-.042-.582-.085-.55-.137-.508-.191-.476-.243-.445-.297-.402-.349-.36-.391-.307-.434-.254-.466-.2-.508-.149-.53-.085-.56-.031-.582.02-.603.075-.646.095-.423.106-.413.127-.391.159-.392.169-.37.19-.36.223-.35.232-.338.254-.318.265-.296.275-.286.296-.264.307-.254.328-.233.34-.212.348-.19.36-.18.37-.148.382-.138.391-.106.392-.084.402-.064.402-.032.423-.02.413.02.392.032.37.064.37.074.339.095.339.116.307.149.296.158.275.18.254.19.233.202.211.211.191.233.17.244.137.264.116.254-.37-.243h4.233l-.392.476-.063-.413v.032l-.085-.392v.022l-.106-.381v.02l-.137-.37.01.022-.158-.36.01.021-.18-.35.011.022-.212-.339.01.022-.221-.329.01.022-.254-.318.021.021-.275-.296.01.01-.295-.285.02.021-.317-.264.022.02-.34-.253.022.01-.36-.232.021.02-.391-.222.021.011-.402-.201.021.01-.423-.18.032.011-.445-.148h.01l-.454-.127h.02l-.475-.106h.02l-.496-.084h.01l-.518-.064.02.01-.539-.042h.021l-.55-.02h.021z" style="fill:#fff;fill-opacity:1;fill-rule:nonzero;stroke:#fff;stroke-width:.0423311px;stroke-linecap:butt;stroke-linejoin:bevel;stroke-miterlimit:4;stroke-dasharray:none;stroke-opacity:1" transform="translate(28.44 .476)"/><path d="M95.342 115.094v-5.588l3.047 5.588zM148.213 121.909v-5.164l3.09 5.164zM94.072 109.972v5.587h1.27v-5.587z" style="fill:#012063;fill-opacity:1;fill-rule:evenodd;stroke:none;stroke-width:.264583" transform="translate(28.44 .476)"/><path d="M68.123 171.267h35.854l-17.927 18.16ZM68.123 139.815v31.452h35.854v-31.452z" style="fill:#c5a472;fill-opacity:1;fill-rule:evenodd;stroke:none;stroke-width:.264583" transform="translate(28.44 .476)"/><path d="M88.987 150.334c-.297 0-.535.096-.704.286-.17.196-.254.45-.254.773 0 .312.09.56.264.746.18.185.408.28.683.28.302 0 .534-.095.71-.286.174-.185.258-.433.258-.74s-.084-.556-.254-.757c-.174-.201-.407-.302-.703-.302zm-.011-2.555a.733.733 0 0 0-.55.217c-.133.148-.201.344-.201.587a.93.93 0 0 0 .206.619c.138.159.333.238.582.238.233 0 .413-.074.534-.227.122-.154.186-.36.186-.63a.866.866 0 0 0-.19-.572c-.128-.153-.318-.232-.567-.232zm-5.392 0c-.307 0-.54.1-.698.296-.154.201-.233.503-.233.91 0 .392.084.693.254.9a.809.809 0 0 0 .672.317c.317 0 .56-.106.725-.317.158-.212.243-.508.243-.89 0-.364-.08-.66-.227-.883-.154-.222-.397-.333-.736-.333zm-5.133-.768h1.027v6.175h-1.376v-4.2c-.132.142-.376.29-.74.438-.36.148-.694.249-1 .297v-1.09c.534-.085.973-.291 1.327-.63.355-.333.609-.667.762-.99zm15.838-.127c.836 0 1.428.186 1.777.556.344.37.519.788.519 1.265 0 .428-.122.814-.365 1.158-.244.34-.614.678-1.122 1.016-.243.18-.497.392-.762.63a5.334 5.334 0 0 0-.72.783h3.011v.894h-4.735c.042-.365.222-.793.534-1.28.312-.492.862-1.032 1.635-1.614a6.45 6.45 0 0 0 .852-.82c.201-.238.302-.476.302-.72 0-.296-.08-.534-.233-.709-.154-.174-.37-.264-.646-.264a.862.862 0 0 0-.635.254c-.174.174-.275.465-.317.878h-1.36c.053-.635.27-1.132.64-1.487.376-.36.915-.54 1.625-.54zm-5.313 0c.735 0 1.275.175 1.62.519.343.344.512.735.512 1.18 0 .249-.052.503-.164.746-.11.243-.296.44-.55.582.249.132.471.328.65.577.18.254.276.555.276.905 0 .534-.185.984-.55 1.36-.36.37-.958.555-1.794.555-.847 0-1.445-.185-1.794-.56a1.935 1.935 0 0 1-.518-1.355c0-.323.09-.62.275-.89.185-.274.428-.465.725-.581-.334-.186-.545-.381-.651-.588a1.73 1.73 0 0 1-.154-.751c0-.476.17-.878.508-1.207.344-.328.879-.492 1.609-.492zm-5.455 0c1 0 1.661.302 1.984.905.317.603.481 1.376.481 2.323 0 1.085-.195 1.89-.587 2.413-.392.524-1.021.783-1.889.783-.667 0-1.159-.127-1.487-.38-.323-.255-.518-.61-.577-1.075h1.328c.043.18.117.317.239.413.116.1.312.153.582.153.312 0 .566-.148.762-.434.19-.285.285-.756.28-1.418-.254.217-.487.36-.693.429-.212.063-.455.1-.736.1-.555 0-1.01-.18-1.375-.529-.366-.354-.545-.878-.545-1.566 0-.635.195-1.143.592-1.535.392-.386.942-.582 1.64-.582z" style="fill:#012063;fill-opacity:1;fill-rule:nonzero;stroke:none;stroke-width:.264583" transform="translate(28.44 .476)"/><path d="M88.97 150.504h.033l-.212.016.032-.005-.186.058.032-.016-.164.09.032-.021-.138.121.022-.026-.111.159.015-.032-.079.18.01-.027-.047.201.005-.026-.016.227v-.02l.016.221-.005-.026.048.196-.011-.032.085.174-.016-.031.116.153-.026-.026.143.121-.027-.02.164.09-.037-.017.18.053-.032-.005.196.016h-.026l.211-.016-.032.005.191-.053-.037.01.164-.084-.032.021.143-.121-.026.02.116-.147-.016.026.08-.175-.011.032.047-.196v.027l.016-.217v.021l-.016-.217v.027l-.047-.201.01.031-.079-.174.016.026-.111-.164.021.027-.138-.133.032.027-.164-.095.032.016-.19-.059.036.005zm.26-.318.222.069.201.111.164.159.133.19.095.207.053.227.02.244-.02.248-.058.228-.096.206-.132.175-.17.148-.2.106-.223.063-.243.022-.228-.022-.211-.058-.196-.106-.17-.143-.137-.18-.1-.206-.059-.227-.016-.254.016-.254.053-.233.095-.212.138-.185.164-.148.201-.111.217-.064.244-.021zm-.265-2.238h.027l-.164.01.032-.004-.143.042.031-.01-.132.068.032-.021-.111.095.026-.032-.085.122.016-.032-.063.138.01-.032-.037.154.005-.027-.015.175v-.021l.015.18-.005-.032.043.164-.01-.027.063.148-.016-.031.09.132-.027-.026.117.105-.037-.026.137.074-.037-.016.154.048-.032-.005.18.016h-.032l.17-.016-.038.005.149-.043-.037.016.121-.074-.031.027.1-.1-.026.031.079-.122-.01.027.058-.148-.011.031.037-.169-.005.021.01-.19v.02l-.01-.163.005.032-.037-.148.005.02-.058-.137.021.032-.085-.122.021.027-.105-.1.031.026-.127-.074.037.015-.153-.042.032.005zm.217-.323.19.053.165.095.132.127.106.148.069.17.047.174.011.19-.01.213-.043.195-.069.18-.1.154-.133.127-.153.09-.18.058-.201.016-.212-.022-.185-.052-.17-.096-.142-.132-.111-.159-.074-.174-.048-.19-.016-.207.016-.201.048-.185.074-.164.111-.149.138-.121.164-.085.18-.053.195-.016zm-5.609.323h.027l-.217.016.037-.005-.19.058.036-.016-.158.095.032-.026-.133.127.027-.032-.106.17.016-.032-.074.206.01-.026-.042.248v-.02l-.016.285v-.016l.016.275-.005-.026.048.243-.005-.026.079.206-.016-.032.111.175-.021-.027.132.138-.031-.027.158.1-.032-.015.175.058-.037-.005.201.016h-.032l.228-.016-.037.005.196-.063-.037.016.169-.096-.037.027.138-.138-.022.027.106-.175-.016.032.074-.206-.005.026.048-.238-.005.021.016-.27v.021l-.01-.259v.021l-.043-.238.005.027-.074-.207.01.027-.095-.18.021.032-.126-.148.031.031-.164-.106.037.016-.2-.063.036.01zm.28-.318.244.08.201.127.16.18.116.206.079.233.048.26.015.28-.015.29-.053.265-.085.233-.127.206-.164.17-.206.116-.228.074-.26.021-.237-.02-.212-.075-.196-.116-.159-.17-.132-.2-.09-.239-.053-.27-.016-.29.016-.308.048-.275.085-.232.121-.207.164-.159.196-.116.228-.064.248-.02zm-5.502-.788h1.296v6.514h-1.714v-4.37l.286.126-.133.116-.18.122-.217.117-.259.116-.275.106-.265.085-.254.068-.444.09v-1.439l.519-.111-.027.005.35-.132-.022.01.318-.18-.027.016.28-.227-.01.01.243-.248-.01.005.212-.25-.011.017.17-.249-.011.016zm.111.503-.18.259-.217.26-.26.264-.295.243-.344.196-.37.143-.398.085.133-.164v1.09l-.201-.164.232-.048h-.01l.249-.064-.011.005.254-.084-.005.005.264-.106-.005.005.249-.111-.011.005.206-.111-.016.01.165-.11-.022.015.403-.36v4.577l-.17-.169h1.376l-.17.17v-6.176l.17.17H78.45l.149-.09zm15.827-.63.312.01.29.027.27.048.25.063.227.085.206.106.185.121.16.149.131.153.117.159.095.164.085.17.058.174.048.18.026.19.01.19-.026.34-.074.327-.127.302-.17.286-.222.275-.27.264-.317.265-.36.254.01-.005-.37.296.005-.005-.391.334.01-.005-.38.37.015-.01-.344.412-.132-.28h3.18v1.233h-5.111l.1-.498.117-.328.164-.349.217-.365.137-.196.154-.201.18-.201.195-.206.223-.207.243-.211.265-.217.28-.217-.005.005.26-.228-.006.005.228-.212-.005.005.201-.195-.005.005.164-.185-.01.015.126-.18-.01.016.095-.174-.016.032.058-.18-.005.031.016-.185v.027l-.01-.212v.032l-.043-.19.01.03-.073-.168.016.031-.1-.148.026.032-.127-.116.026.02-.148-.084.037.016-.175-.048.037.005-.195-.015h.026l-.18.015.032-.005-.164.048.026-.01-.148.079.027-.021-.138.11.026-.026-.116.154.021-.037-.09.2.01-.026-.068.238.005-.016-.063.43h-1.71l.106-.657.137-.429.212-.375.27-.318.164-.137.18-.122.195-.1.212-.08.228-.064.238-.047.254-.027zm-.254.35h.015l-.243.026.016-.005-.228.042h.016l-.211.058.016-.005-.196.074.016-.01-.18.095.016-.01-.164.11.016-.01-.149.122.022-.016-.254.29.02-.026-.19.344.01-.026-.126.397.005-.027-.069.45-.17-.196h1.36l-.163.148.042-.301.074-.26.1-.232.143-.18.164-.133.18-.095.201-.063.212-.016.228.016.211.063.18.1.154.144.127.174.079.196.053.217.016.238-.021.212-.064.211-.111.201-.143.196-.17.196-.206.206-.232.212-.265.233-.286.217h.005l-.259.211.005-.005-.238.207h.005l-.217.2.005-.004-.19.2v-.004l-.17.196.005-.011-.148.19.005-.01-.127.19.005-.01-.212.354.005-.01-.158.333.01-.016-.11.307.004-.021-.058.28-.164-.2h4.736l-.17.169v-.895l.17.17h-3.37l.576-.693.391-.387.397-.338.376-.302.354-.254-.005.01.307-.253-.016.01.26-.254-.01.01.206-.253-.016.021.158-.265-.01.022.116-.28-.01.026.068-.297-.005.022.027-.313v.016l-.01-.174v.016l-.022-.17v.016l-.042-.164.005.016-.053-.164.005.021-.074-.153.005.01-.09-.148.01.01-.105-.147.01.01-.122-.137.011.016-.143-.133.021.016-.164-.11.016.01-.185-.096.016.005-.212-.079.016.005-.233-.058.016.005-.254-.042h.01l-.28-.027h.011l-.302-.01h.011zm-5.059-.35.275.01.265.027.243.042.228.059.206.08.196.1.17.116.153.132.137.143.111.148.095.154.08.164.063.164.048.174.026.175.011.18-.016.206-.032.207-.058.2-.074.207-.111.196-.143.175-.174.158-.19.122v-.286l.19.117.185.143.17.174.153.19.132.223.1.243.053.26.021.27-.01.216-.027.207-.047.196-.064.19-.084.18-.101.175-.122.164-.143.158-.164.143-.185.127-.211.106-.228.085-.249.063-.27.048-.296.026-.312.005-.312-.005-.297-.026-.275-.048-.248-.063-.233-.09-.207-.1-.185-.133-.159-.143-.132-.164-.116-.159-.095-.174-.08-.186-.063-.185-.048-.196-.021-.2-.01-.218.02-.254.053-.254.1-.243.133-.227.164-.212.19-.175.212-.148.223-.106-.016.297-.233-.143-.201-.159-.159-.17-.116-.18-.074-.19-.053-.2-.032-.212-.016-.233.037-.37.106-.35.174-.317.244-.28.153-.133.175-.111.19-.095.207-.075.227-.058.238-.037.26-.026zm-.26.35h.017l-.25.02h.012l-.228.037.016-.005-.212.059.016-.005-.196.068.016-.005-.174.085.02-.01-.153.095.016-.01-.137.116.02-.021-.221.259.02-.027-.158.286.01-.032-.094.312.005-.031-.032.344v-.027l.01.212v-.016l.032.196-.005-.016.048.18-.005-.021.063.164-.016-.027.101.153-.021-.026.143.153-.022-.02.186.142-.016-.01.492.306-.492.233.02-.016-.19.133.022-.016-.175.158.021-.015-.148.19.01-.021-.121.212.01-.027-.084.217.005-.027-.048.228v-.021l-.016.233v-.016l.005.195v-.015l.027.185-.005-.016.042.18-.005-.01.058.169-.005-.016.074.164-.01-.01.09.158-.005-.016.106.153-.01-.016.12.149-.015-.016.143.132-.016-.016.164.117-.021-.016.185.095-.016-.005.217.08-.021-.006.238.058h-.016l.26.043h-.011l.28.026h-.01l.306.005h-.005l.302-.005h-.016l.28-.026h-.01l.254-.043h-.01l.232-.058-.01.005.211-.08-.021.011.196-.1-.021.01.169-.11-.021.015.148-.132-.01.01.126-.142-.01.016.11-.154-.01.016.095-.159-.01.016.08-.164-.006.01.058-.174-.005.021.043-.18v.016l.026-.19-.005.016.01-.196v.016l-.015-.249v.021l-.048-.232.005.026-.084-.217.01.021-.116-.195.01.02-.143-.18.011.017-.153-.159.016.016-.17-.132.016.01-.413-.254.408-.26-.021.017.153-.138-.021.021.122-.158-.016.02.1-.174-.01.021.068-.185-.005.016.053-.185-.005.021.032-.185v.016l.01-.19v.02l-.01-.163v.015l-.021-.158v.016l-.037-.154.005.016-.058-.148.005.016-.07-.148.011.016-.09-.138.005.01-.1-.137.005.016-.122-.132.016.01-.137-.121.015.015-.153-.105.016.01-.175-.09.016.005-.19-.069.01.005-.211-.058.02.005-.232-.042h.01l-.248-.021h.016l-.265-.01h.005zm-5.195-.35.375.016.344.042.318.08.285.105.254.143.223.17.185.206.148.233.122.249.1.259.085.28.069.291.058.307.037.323.021.339.01.354-.01.402-.026.376-.048.355-.063.328-.09.301-.106.275-.127.254-.148.223-.175.2-.196.175-.222.148-.243.122-.27.09-.28.069-.313.037-.323.01-.254-.004-.238-.016-.217-.032-.206-.048-.196-.053-.175-.074-.164-.084-.148-.106-.243-.228-.185-.28-.133-.318-.121-.55h1.661l.127.35-.026-.054.148.18-.042-.032.105.064-.037-.016.133.048-.027-.011.159.026h-.021l.19.011h-.032l.228-.026-.048.01.201-.08-.037.022.18-.137-.026.031.153-.19-.016.02.07-.115-.006.02.058-.132-.01.016.047-.153v.016l.037-.17v.011l.032-.19v.01l.021-.2v.004l.01-.222-.004.01.005-.238.275.133-.19.153-.19.132-.186.1-.185.075-.365.08-.418.026-.217-.01-.212-.027-.196-.042-.196-.064-.185-.085-.17-.1-.163-.111-.154-.138-.142-.153-.122-.175-.1-.19-.085-.207-.064-.217-.047-.233-.027-.248-.01-.265.01-.243.032-.238.047-.223.074-.217.085-.2.111-.191.133-.175.153-.164.17-.153.185-.127.195-.106.217-.09.228-.069.238-.047.26-.032zm-.25.35h.017l-.244.026h.016l-.227.042h.016l-.212.064.016-.005-.201.079.016-.01-.18.1.016-.005-.17.116.016-.016-.158.138.015-.01-.137.153.01-.016-.121.164.01-.016-.1.175.005-.016-.08.185.005-.016-.068.201.005-.021-.043.212v-.016l-.026.222v-.016l-.01.233v-.016l.01.254v-.016l.026.233-.005-.01.043.216v-.01l.058.2-.005-.015.074.185-.01-.016.095.17-.005-.016.11.158-.015-.016.127.138-.01-.01.137.126-.016-.016.153.106-.01-.005.153.09-.016-.005.17.074-.016-.005.174.059-.016-.005.186.037h-.016l.196.026-.016-.005.2.01h-.015l.391-.026-.02.005.338-.074-.027.005.164-.063-.02.01.168-.095-.015.01.18-.121-.011.01.466-.38-.011.603-.01.227-.022.217-.032.196-.042.18-.053.17-.069.147-.08.138-.174.212-.217.164-.238.095-.264.032-.212-.011-.185-.032-.164-.058-.138-.09-.185-.222-.1-.26.158.106h-1.328l.164-.2.074.327-.01-.031.121.29-.02-.031.168.249-.02-.027.222.207-.022-.016.127.09-.016-.011.143.08-.01-.011.158.069-.016-.005.18.053-.01-.005.19.042h-.01l.206.026h-.005l.228.022-.011-.005.238.005h-.01l.312-.011H83.8l.296-.037-.016.005.265-.064-.016.005.249-.084-.022.01.228-.11-.021.01.2-.138-.015.016.18-.159-.016.016.159-.185-.016.016.137-.206-.01.016.121-.233-.005.016.101-.265-.005.01.085-.285-.005.016.063-.318v.01l.042-.338v.005l.032-.365-.005.01.01-.396v.01l-.01-.349.005.01-.02-.332v.01l-.043-.312v.01l-.053-.301.005.01-.069-.28.005.01-.085-.264.005.005-.095-.249.005.016-.116-.238.01.021-.137-.211.021.021-.17-.185.027.021-.2-.153.02.01-.233-.127.022.01-.265-.1.021.01-.296-.073.016.005-.328-.043h.016l-.36-.016h.01z" style="fill:#012063;fill-opacity:1;fill-rule:nonzero;stroke:#012063;stroke-width:.0423311px;stroke-linecap:butt;stroke-linejoin:bevel;stroke-miterlimit:4;stroke-dasharray:none;stroke-opacity:1" transform="translate(28.44 .476)"/><path d="M83.642 162.78c-.312 0-.55.185-.709.555-.159.37-.238.953-.238 1.752 0 .778.074 1.365.228 1.757.158.391.396.582.73.576.339.005.587-.19.74-.582.149-.397.228-.979.228-1.751 0-.836-.09-1.429-.26-1.778-.174-.355-.412-.53-.719-.53zm10.647-.89c.836 0 1.428.186 1.777.551.344.37.519.794.519 1.265 0 .434-.122.82-.365 1.159-.243.343-.614.682-1.122 1.015-.243.186-.497.392-.762.63a5.375 5.375 0 0 0-.72.789h3.011v.889h-4.735c.042-.36.222-.789.534-1.281.312-.492.862-1.027 1.635-1.614.37-.307.656-.577.852-.815.201-.238.302-.476.302-.72 0-.296-.08-.534-.233-.714-.154-.174-.37-.264-.646-.264a.866.866 0 0 0-.635.259c-.174.17-.275.46-.317.873h-1.36c.053-.63.27-1.127.64-1.487.376-.354.916-.534 1.625-.534zm-5.334 0c.836 0 1.429.186 1.778.551.344.37.518.794.518 1.265 0 .434-.121.82-.365 1.159-.243.343-.614.682-1.122 1.015-.243.186-.497.392-.762.63a5.374 5.374 0 0 0-.72.789h3.012v.889h-4.736c.042-.36.222-.789.534-1.281.312-.492.863-1.027 1.635-1.614.37-.307.656-.577.852-.815.201-.238.302-.476.302-.72 0-.296-.08-.534-.233-.714-.153-.174-.37-.264-.646-.264a.866.866 0 0 0-.635.259c-.174.17-.275.46-.317.873h-1.36c.053-.63.27-1.127.64-1.487.376-.354.916-.534 1.625-.534zm-5.302 0c.804 0 1.397.292 1.772.88.376.586.567 1.359.561 2.317 0 .973-.185 1.751-.555 2.344-.37.592-.963.889-1.778.884-.773.005-1.355-.265-1.746-.81-.392-.55-.588-1.355-.588-2.418 0-1.032.196-1.826.582-2.376.387-.55.969-.82 1.752-.82zm-5.366 0c.836 0 1.43.186 1.778.551.344.37.519.794.519 1.265 0 .434-.122.82-.365 1.159-.244.343-.614.682-1.122 1.015-.243.186-.497.392-.762.63a5.375 5.375 0 0 0-.72.789h3.011v.889H75.89c.043-.36.223-.789.535-1.281.312-.492.862-1.027 1.635-1.614.37-.307.656-.577.852-.815.2-.238.301-.476.301-.72 0-.296-.079-.534-.232-.714-.154-.174-.37-.264-.646-.264a.866.866 0 0 0-.635.259c-.175.17-.275.46-.317.873h-1.36c.053-.63.27-1.127.64-1.487.376-.354.915-.534 1.624-.534z" style="fill:#012063;fill-opacity:1;fill-rule:nonzero;stroke:none;stroke-width:.264583" transform="translate(28.44 .476)"/><path d="M83.632 162.95h.026l-.116.01.032-.005-.112.026.032-.01-.1.047.026-.016-.095.064.021-.016-.084.074.015-.016-.079.095.016-.02-.074.115.01-.015-.063.132.005-.016-.058.148.005-.016-.048.17.005-.005-.042.185v-.01l-.032.205v-.005l-.026.228v-.005l-.016.249-.016.27v-.011.291-.005.286-.005l.01.264v-.005l.022.244v-.005l.026.227v-.005l.032.212-.005-.01.042.19-.005-.01.048.174v-.01l.053.158-.005-.016.063.138-.01-.016.068.116-.01-.016.08.1-.022-.02.09.084-.027-.02.096.063-.021-.016.1.047-.026-.01.11.026-.031-.005.116.005h-.01l.121-.005-.031.005.116-.026-.026.01.105-.047-.026.016.095-.064-.021.016.09-.085-.021.027.08-.1-.017.015.074-.122-.01.016.063-.137-.005.016.053-.16-.005.012.043-.175v.01l.042-.19-.005.005.032-.206v.005l.026-.228v.005l.021-.243-.005.005.01-.265v.005l.006-.28v.005l-.005-.302v.005l-.01-.28v.005l-.022-.254v.005l-.026-.233v.005l-.037-.212.005.01-.048-.19.005.016-.053-.164.005.016-.058-.143.005.016-.069-.122.01.011-.073-.106.01.016-.08-.09.017.016-.085-.074.016.016-.09-.058.026.01-.1-.037.026.005-.106-.026.027.005zm.153-.329.127.032.127.053.111.074.106.09.095.106.085.121.08.138.063.159.058.174.048.207.037.217.031.243.022.265.01.285.005.302-.005.286-.01.27-.016.253-.027.233-.037.217-.037.201-.047.185-.059.17-.068.153-.08.138-.095.122-.111.1-.116.08-.138.058-.143.031-.148.005-.143-.005-.143-.037-.127-.053-.121-.079-.106-.1-.096-.122-.079-.132-.069-.154-.058-.17-.053-.184-.042-.201-.032-.217-.026-.233-.016-.254-.016-.27v-.582l.016-.275.02-.26.027-.232.032-.217.042-.196.053-.18.064-.164.069-.148.084-.127.09-.117.106-.09.111-.079.127-.053.138-.037.137-.01zm10.504-.9.312.011.29.027.27.042.25.063.227.09.206.1.185.128.16.143.131.153.117.159.095.164.085.17.058.18.048.179.026.19.01.191-.026.339-.074.322-.127.307-.17.286-.222.27-.27.27-.317.26-.36.258.01-.005-.37.291.005-.005-.391.339.01-.01-.38.375.015-.016-.344.413-.132-.275h3.18v1.227h-5.111l.1-.497.117-.328.164-.35.217-.364.137-.196.154-.201.18-.196.195-.206.223-.212.243-.212.265-.217.28-.217-.005.005.26-.222h-.006l.228-.206-.005.005.201-.201-.005.01.164-.185-.01.01.126-.18-.01.022.095-.18-.016.032.058-.18-.005.032.016-.18v.026l-.01-.211v.026l-.043-.185.01.026-.073-.164.016.027-.1-.143.026.026-.127-.11.026.02-.148-.084.037.016-.175-.053.037.005-.195-.016h.026l-.18.016.032-.005-.164.053.026-.016-.148.08.027-.017-.138.111.026-.026-.116.148.021-.032-.09.196.01-.026-.068.243.005-.021-.063.428h-1.71l.106-.656.137-.423.212-.376.27-.317.164-.143.18-.122.195-.1.212-.08.228-.063.238-.043.254-.026zm-.254.344h.015l-.243.027h.016l-.228.042.016-.005-.211.058.016-.005-.196.074.016-.005-.18.09.016-.01-.164.111.016-.01-.149.126.022-.02-.254.296.02-.032-.19.349.01-.032-.126.397.005-.026-.069.45-.17-.196h1.36l-.163.148.042-.297.074-.264.1-.228.143-.185.164-.132.18-.095.201-.059.212-.02.228.02.211.059.18.105.154.138.127.175.08.195.052.217.016.244-.021.211-.064.212-.111.201-.143.196-.17.196-.206.206-.232.212-.265.227-.286.223.005-.005-.259.211.005-.005-.238.212.005-.005-.217.206.005-.005-.19.201v-.005l-.17.19.005-.004-.148.19.005-.01-.127.185.005-.005-.212.354.005-.016-.158.334.01-.016-.11.312.004-.026-.058.285-.164-.206h4.736l-.17.17v-.89l.17.17h-3.37l.576-.699.391-.38.397-.345.376-.296.354-.254-.005.005.307-.254-.016.01.26-.253-.01.016.206-.26-.016.021.158-.264-.01.021.116-.28-.01.031.068-.301-.005.026.027-.317v.021l-.01-.175v.016l-.022-.174v.02l-.042-.163.005.01-.053-.158.005.016-.074-.154.005.016-.09-.153.01.016-.105-.149.01.01-.122-.142.011.016-.143-.127.021.01-.164-.11.016.015-.185-.095.016.005-.212-.08.016.006-.233-.064.016.005-.254-.042h.01l-.28-.027h.011l-.302-.005h.011zm-5.08-.344.312.011.291.027.27.042.249.063.227.09.207.1.185.128.158.143.133.153.116.159.095.164.085.17.058.18.048.179.026.19.01.191-.026.339-.074.322-.127.307-.169.286-.222.27-.27.27-.318.26-.36.258.011-.005-.37.291.005-.005-.392.339.01-.01-.38.375.016-.016-.344.413-.132-.275h3.18v1.227H86.35l.1-.497.117-.328.164-.35.217-.364.138-.196.153-.201.18-.196.196-.206.222-.212.243-.212.265-.217.28-.217-.004.005.259-.222h-.005l.227-.206-.005.005.201-.201-.005.01.164-.185-.01.01.127-.18-.01.022.095-.18-.016.032.058-.18-.005.032.016-.18v.026l-.01-.211v.026l-.043-.185.01.026-.074-.164.016.027-.1-.143.026.026-.127-.11.027.02-.148-.084.037.016-.175-.053.037.005-.196-.016h.027l-.18.016.031-.005-.164.053.027-.016-.148.08.026-.017-.137.111.026-.026-.116.148.02-.032-.09.196.011-.026-.068.243.005-.021-.064.428H86.49l.106-.656.137-.423.212-.376.27-.317.164-.143.18-.122.196-.1.211-.08.228-.063.238-.043.254-.026zm-.254.344h.016l-.244.027h.016l-.227.042.016-.005-.212.058.016-.005-.196.074.016-.005-.18.09.016-.01-.164.111.016-.01-.148.126.02-.02-.253.296.021-.032-.19.349.01-.032-.127.397.005-.026-.069.45-.169-.196h1.36l-.164.148.042-.297.074-.264.1-.228.144-.185.164-.132.18-.095.2-.059.212-.02.228.02.212.059.18.105.153.138.127.175.08.195.052.217.016.244-.021.211-.064.212-.11.201-.144.196-.169.196-.206.206-.233.212-.265.227-.285.223.005-.005-.26.211.005-.005-.238.212.005-.005-.217.206.005-.005-.19.201v-.005l-.17.19.006-.004-.149.19.005-.01-.127.185.005-.005-.211.354.005-.016-.159.334.01-.016-.11.312.004-.026-.058.285-.164-.206h4.736l-.17.17v-.89l.17.17h-3.37l.576-.699.392-.38.397-.345.375-.296.355-.254-.005.005.307-.254-.016.01.259-.253-.01.016.206-.26-.016.021.159-.264-.01.021.115-.28-.01.031.069-.301-.005.026.026-.317v.021l-.01-.175v.016l-.022-.174v.02l-.042-.163.005.01-.053-.158.005.016-.074-.154.005.016-.09-.153.01.016-.105-.149.01.01-.121-.142.01.016-.143-.127.022.01-.164-.11.015.015-.185-.095.016.005-.212-.08.016.006-.232-.064.015.005-.254-.042h.011l-.28-.027h.01l-.301-.005h.01zm-5.048-.344.312.016.286.043.275.074.249.106.232.132.212.17.19.195.16.222.142.244.122.259.1.275.085.296.064.307.042.328.021.344.01.355-.01.365-.026.35-.043.327-.063.312-.085.297-.095.28-.122.265-.137.243-.16.222-.184.201-.212.164-.233.138-.254.106-.275.069-.291.042-.312.016-.297-.01-.28-.043-.26-.069-.248-.09-.227-.127-.212-.153-.19-.18-.17-.206-.143-.233-.127-.26-.106-.28-.09-.302-.068-.328-.043-.349-.032-.37-.01-.397.01-.381.032-.365.043-.339.068-.323.085-.301.106-.275.122-.254.148-.233.164-.212.19-.18.212-.153.227-.127.244-.095.27-.075.28-.037zm-.275.35h.016l-.265.037.021-.005-.248.068.015-.005-.227.09.021-.01-.206.116.016-.01-.19.137.015-.01-.175.164.016-.016-.153.19.01-.016-.132.217.005-.01-.116.238.005-.016-.1.264.004-.015-.08.285v-.01l-.063.307.005-.011-.047.333v-.01l-.027.354v-.01l-.01.375v-.005l.01.387v-.011l.027.36v-.005l.047.338-.005-.015.07.317-.006-.01.085.285-.005-.01.1.264-.005-.016.117.244-.01-.016.137.217-.01-.016.158.19-.016-.016.175.164-.022-.01.196.137-.021-.01.212.11-.022-.004.228.085-.016-.005.244.063-.022-.005.26.037h-.016l.28.01h-.01l.296-.01h-.021l.275-.042-.016.005.254-.064-.021.005.233-.1-.022.01.212-.121-.021.01.19-.148-.016.016.17-.18-.016.016.148-.206-.01.016.132-.233-.01.016.115-.25-.005.012.096-.265-.005.01.08-.285v.016l.057-.302-.005.01.048-.322v.01l.026-.338-.005.01.011-.354v.005l-.01-.35.004.011-.026-.333v.01l-.042-.317.005.01-.064-.296.005.011-.08-.28v.01l-.095-.26.005.011-.116-.248.01.016-.132-.233.011.016-.153-.207.015.022-.174-.18.021.016-.196-.154.021.016-.211-.127.021.01-.233-.095.021.005-.254-.068.022.005-.27-.043h.016l-.291-.01h.01zm-5.09-.35.312.011.29.027.27.042.25.063.227.09.206.1.185.128.159.143.132.153.117.159.095.164.085.17.058.18.047.179.027.19.01.191-.026.339-.074.322-.127.307-.17.286-.222.27-.27.27-.317.26-.36.258.01-.005-.37.291.006-.005-.392.339.01-.01-.38.375.016-.016-.344.413-.133-.275h3.18v1.227h-5.111l.1-.497.117-.328.164-.35.217-.364.138-.196.153-.201.18-.196.196-.206.222-.212.243-.212.265-.217.28-.217-.005.005.26-.222h-.006l.228-.206-.006.005.201-.201-.005.01.164-.185-.01.01.126-.18-.01.022.095-.18-.016.032.058-.18-.005.032.016-.18v.026l-.01-.211v.026l-.043-.185.01.026-.073-.164.015.027-.1-.143.026.026-.127-.11.027.02-.148-.084.037.016-.175-.053.037.005-.196-.016h.027l-.18.016.032-.005-.164.053.026-.016-.148.08.026-.017-.137.111.026-.026-.116.148.021-.032-.09.196.01-.026-.068.243.005-.021-.063.428h-1.71l.106-.656.138-.423.212-.376.27-.317.164-.143.18-.122.195-.1.212-.08.227-.063.239-.043.254-.026zm-.255.344h.016l-.243.027h.016l-.228.042.016-.005-.212.058.016-.005-.195.074.015-.005-.18.09.016-.01-.164.111.016-.01-.148.126.021-.02-.254.296.021-.032-.19.349.01-.032-.127.397.006-.026-.069.45-.17-.196h1.36l-.163.148.042-.297.074-.264.1-.228.143-.185.164-.132.18-.095.201-.059.212-.02.228.02.211.059.18.105.154.138.127.175.079.195.053.217.016.244-.021.211-.064.212-.111.201-.143.196-.17.196-.206.206-.232.212-.265.227-.286.223.006-.005-.26.211.006-.005-.239.212.006-.005-.217.206.005-.005-.19.201v-.005l-.17.19.006-.004-.149.19.006-.01-.127.185.005-.005-.212.354.006-.016-.16.334.012-.016-.112.312.006-.026-.059.285-.164-.206h4.736l-.17.17v-.89l.17.17h-3.37l.576-.699.392-.38.397-.345.376-.296.354-.254-.005.005.307-.254-.016.01.259-.253-.01.016.206-.26-.016.021.159-.264-.01.021.116-.28-.011.031.069-.301-.006.026.027-.317v.021l-.01-.175v.016l-.022-.174v.02l-.042-.163.005.01-.053-.158.006.016-.075-.154.006.016-.09-.153.01.016-.105-.149.01.01-.122-.142.011.016-.143-.127.021.01-.164-.11.016.015-.185-.095.016.005-.212-.08.016.006-.233-.064.016.005-.254-.042h.01l-.28-.027h.01l-.3-.005h.01z" style="fill:#012063;fill-opacity:1;fill-rule:nonzero;stroke:#012063;stroke-width:.0423311px;stroke-linecap:butt;stroke-linejoin:bevel;stroke-miterlimit:4;stroke-dasharray:none;stroke-opacity:1" transform="translate(28.44 .476)"/><path d="M84.6 157.16v.895h3.44v-.895z" style="fill:#012063;fill-opacity:1;fill-rule:evenodd;stroke:none;stroke-width:.264583" transform="translate(28.44 .476)"/><path d="M84.43 156.99h3.779v1.234H84.43zm.34 1.065-.17-.17h3.44l-.17.17v-.895l.17.17H84.6l.17-.17z" style="fill:#012063;fill-opacity:1;fill-rule:nonzero;stroke:#012063;stroke-width:.0423311px;stroke-linecap:butt;stroke-linejoin:bevel;stroke-miterlimit:4;stroke-dasharray:none;stroke-opacity:1" transform="translate(28.44 .476)"/><path d="m101.966 16.145-1.608 4.36h3.217zm-1.587-2.519h3.175l4.275 11.345h-2.582l-1.058-2.836h-4.45l-1.037 2.836h-2.583zm-14.297 0h8.408v1.65H88.6v3.197h5.593v1.63H88.6v3.217h5.868v1.65h-8.386zm-10.848 0h2.524v9.694h5.89v1.65h-8.414z" style="fill:#c5a472;fill-opacity:1;fill-rule:evenodd;stroke:none;stroke-width:.264583" transform="translate(28.44 .476)"/><path d="M101.59 16.303h.763l-1.609 4.355-.38-.529h3.216l-.36.53zm2.583 4.636h-4.381l2.18-5.948zm-4.064-7.715h3.725l4.567 12.191h-3.424l-1.143-3.1.36.259h-4.44l.376-.26-1.137 3.101h-3.43zM96.516 25.14l-.38-.53h2.581l-.38.255 1.142-3.1h5.011l1.143 3.1-.38-.254h2.582l-.381.529-4.255-11.36.36.253h-3.175l.381-.254zm-10.81-11.916h9.202v2.466h-6.281l.402-.403v3.207l-.402-.402h5.984v2.44h-5.984l.402-.403v3.228l-.402-.402h6.26v2.46h-9.181zm.804 11.789-.402-.402h8.376l-.402.402v-1.656l.402.402h-6.26v-4.032h5.985l-.402.402v-1.635l.402.402h-5.984v-4.01h6.28l-.402.401v-1.656l.403.402h-8.398l.402-.402zm-11.636-11.79h3.323v10.134l-.402-.402h6.281v2.46h-9.202zm.805 11.79-.402-.402h8.397l-.402.402v-1.656l.402.402h-6.28V13.631l.401.402h-2.518l.402-.402z" style="fill:#c5a472;fill-opacity:1;fill-rule:evenodd;stroke:none;stroke-width:.264583" transform="translate(28.44 .476)"/><path d="m101.575 16.314.016-.032h.762l.02.032-1.608 4.355-.037.005-.38-.534.015-.032h3.217l.016.032-.36.534-.037-.005zm1.667 4.339-.037-.005.36-.53.015.032h-3.217l.021-.032.381.53-.037.005 1.604-4.355.02.027h-.761l.021-.027zm.952.275-.021.032h-4.381l-.016-.032 2.174-5.947h.043zm-2.244-5.932h.043l-2.18 5.948-.021-.026h4.38l-.02.026zm-1.857-1.777.016-.016h3.725l.021.016 4.567 12.19-.021.027h-3.424l-.021-.01-1.143-3.101.032-.026.36.254-.01.042h-4.446l-.01-.042.38-.254.032.026-1.142 3.1-.016.011h-3.43l-.02-.026zm-4.508 12.207-.021-.032h3.429l-.022.016 1.143-3.1.032.026-.38.254-.017-.037h4.445l-.01.037-.36-.254.031-.027 1.143 3.1-.02-.015h3.423l-.016.032-4.572-12.192.021.011h-3.725l.021-.01zm.952-.275-.037.005-.38-.535.015-.031h2.583l.01.037-.38.254-.033-.021 1.143-3.101.022-.016h5.01l.022.016 1.143 3.1-.032.022-.381-.254.01-.037h2.583l.016.031-.381.535-.037-.005-4.255-11.366.032-.021.36.254-.01.037h-3.176l-.01-.037.38-.254.033.02zm4.212-11.382.032.026-.38.254-.017-.037h3.175l-.01.037-.36-.254.031-.026 4.25 11.366-.038-.006.381-.529.022.032h-2.583l.011-.037.38.254-.03.021-1.144-3.1.021.015h-5.01l.015-.016-1.143 3.101-.031-.021.38-.254.016.037h-2.582l.016-.032.381.53-.037.005zm-15.064-.545.021-.021h9.202l.02.02v2.467l-.02.02h-6.281l-.016-.036.402-.402.037.015v3.207l-.037.016-.402-.408.016-.031h5.984l.022.02v2.44l-.022.021h-5.984l-.016-.037.402-.402.037.016v3.228l-.037.016-.402-.402.016-.037h6.26l.02.02v2.461l-.02.021h-9.181l-.021-.02zm.042 12.191-.021-.021h9.18l-.02.021v-2.46l.02.02h-6.26l.017-.036.402.402-.037.016v-3.228l.037.016-.402.402-.016-.037h5.984l-.02.021v-2.44l.02.022h-5.984l.016-.037.402.402-.037.016v-3.207l.037.016-.402.402-.016-.037h6.28l-.02.022v-2.466l.02.021h-9.201l.021-.021zm.804-.402-.037.016-.402-.402.016-.037h8.376l.016.037-.402.402-.037-.016v-1.656l.037-.016.402.407-.016.032h-6.26l-.02-.021v-4.032l.02-.021h5.985l.016.037-.402.402-.037-.016v-1.635l.037-.016.402.402-.016.037h-5.984l-.022-.02v-4.012l.022-.02h6.28l.016.03-.402.408-.037-.016v-1.656l.037-.016.402.403-.015.037h-8.398l-.016-.037.402-.403.037.016zm-.042-11.382.037.016-.402.402-.016-.037h8.397l-.015.037-.403-.402.037-.016v1.656l-.037-.015.403-.403.015.037h-6.28l.02-.02v4.01l-.02-.021h5.984l-.016.037-.402-.402.037-.016v1.635l-.037-.016.402-.402.016.037h-5.984l.02-.021v4.032l-.02-.021h6.26l-.017.037-.402-.402.037-.016v1.656l-.037-.016.402-.402.016.037h-8.376l.016-.037.402.402-.037.016zm-11.636-.407.021-.021h3.323l.022.02v10.134l-.037.016-.403-.402.016-.037h6.281l.021.02v2.461l-.02.021h-9.203l-.02-.02zm.043 12.191-.022-.021h9.202l-.021.021v-2.46l.021.02h-6.28l.015-.036.402.402-.037.016V13.224l.021.021h-3.323l.022-.021zm.804-.402-.032.016-.402-.402.01-.037h8.398l.016.037-.402.402-.037-.016v-1.656l.037-.016.402.407-.016.032h-6.28l-.022-.021V13.631l.037-.016.402.403-.016.037h-2.518l-.011-.037.402-.403.032.016zm-.042-11.382.037.016-.403.402-.015-.037h2.518l-.016.037-.402-.402.037-.016V23.76l-.02-.021h6.28l-.01.037-.403-.402.032-.016v1.656l-.032-.016.402-.402.011.037h-8.397l.015-.037.403.402-.037.016z" style="fill:#c5a472;fill-opacity:1;fill-rule:nonzero;stroke:#c5a472;stroke-width:.00529139px;stroke-linecap:butt;stroke-linejoin:round;stroke-miterlimit:4;stroke-dasharray:none;stroke-opacity:1" transform="translate(28.44 .476)"/><path d="M111.28 24.569c.91.529 1.968.783 3.195.783 1.1 0 2.074-.212 2.9-.635.868-.445 1.524-1.059 1.99-1.863.486-.825.74-1.799.74-2.942v-1.735h-6.625l1.46 2.434h1.885a2.076 2.076 0 0 1-.254.91c-.17.275-.424.487-.762.656-.36.127-.783.212-1.313.212-.571 0-1.08-.127-1.46-.403-.402-.275-.699-.677-.91-1.227-.19-.508-.296-1.143-.296-1.884 0-.72.105-1.333.317-1.863.212-.508.53-.91.91-1.185.423-.275.89-.402 1.46-.402.276 0 .509.021.741.085a1.9 1.9 0 0 1 .593.275c.148.106.296.254.402.423.127.17.212.339.275.55h3.43a4.301 4.301 0 0 0-.551-1.714 4.928 4.928 0 0 0-1.185-1.376 5.656 5.656 0 0 0-1.694-.91 6.554 6.554 0 0 0-2.074-.317c-.847 0-1.63.148-2.37.444a5.396 5.396 0 0 0-1.948 1.249c-.571.55-1.016 1.228-1.333 2.032-.318.804-.466 1.714-.466 2.773 0 1.312.254 2.455.783 3.428a5.28 5.28 0 0 0 2.16 2.202zM42.936 11.933H39.02c-2.794 3.683-5.143 6.095-5.99 6.73.72.339 2.37 2.815 4.297 7.535h3.958c-1.884-4.72-3.556-7.238-4.106-7.725.72-.593 2.878-2.857 5.757-6.54zM29.347 11.933c.402.635 1.186.783 1.059 1.82l-1.778 12.445h3.28l2.053-14.265zM52.1 16.081c-.127.995-.465 1.355-1.1 1.355h-3.852l.38-2.71h3.874c.614 0 .846.382.698 1.355zm-.571 5.736c-.17 1.122-.572 1.587-1.291 1.587H46.3l.444-3.259h3.895c.74 0 1.037.508.889 1.672zm1.143-9.884h-9.334c.36.635 1.185.783 1.058 1.82l-1.8 12.445h8.129c2.285 0 3.873-.973 4.275-3.83.317-2.223-.19-3.683-1.503-3.683 1.207 0 1.947-1.334 2.244-3.345.317-2.222-.212-3.407-3.07-3.407M67.34 18.98c-.572 3.959-1.186 4.551-4.064 4.551-2.9 0-3.323-.592-2.773-4.55.571-3.895 1.164-4.34 4.043-4.34 2.878 0 3.344.445 2.793 4.34zm-2.371-7.386c-4.572 0-7.133 1.545-7.98 7.366-.846 5.884 1.27 7.577 5.842 7.577 4.572 0 7.197-1.693 8.022-7.577.825-5.82-1.312-7.366-5.884-7.366z" style="fill:#c5a472;fill-opacity:1;fill-rule:evenodd;stroke:none;stroke-width:.264583" transform="translate(28.44 .476)"/><path d="m99.829 23.15 1.143-3.301.762 3.936z" style="fill:#013983;fill-opacity:1;fill-rule:evenodd;stroke:none;stroke-width:.264583" transform="translate(28.44 .476)"/><path d="M135.276 13.414h8.408v1.651h-5.89v3.196h5.572v1.63h-5.572v3.217h5.869v1.651h-8.387zm-13.308 0h2.524v7.09c0 .89.19 1.588.592 2.075.381.508 1.038.762 1.969.762.979 0 1.635-.254 2.016-.762.38-.487.571-1.185.571-2.074v-7.09h2.519v6.793c0 1.567-.402 2.752-1.185 3.556-.762.805-2.074 1.207-3.921 1.207-1.884 0-3.196-.424-3.958-1.25-.74-.846-1.127-2.01-1.127-3.513z" style="fill:#c5a472;fill-opacity:1;fill-rule:evenodd;stroke:none;stroke-width:.264583" transform="translate(28.44 .476)"/><path d="M134.89 13.054h9.196v2.456h-6.276l.402-.402v3.19l-.402-.402h5.964v2.429h-5.964l.402-.402v3.212l-.402-.403h6.255v2.456h-9.176zm.804 11.732-.402-.403h8.376l-.402.403v-1.651l.402.402h-6.26V19.52h5.964l-.403.402v-1.625l.403.402h-5.964v-3.995h6.281l-.402.403v-1.651l.402.402h-8.397l.402-.402zm-14.086-11.732h3.323v7.483l.021.317v-.021l.021.296v-.021l.043.296v-.042l.063.275-.021-.021.085.254-.021-.042.105.232-.02-.042.126.228-.021-.037.127.185-.021-.043.148.17-.042-.043.19.17-.042-.043.19.127-.042-.02.233.105-.043-.021.276.085h-.043l.275.042h-.02l.317.042h-.043.334-.021.338-.02l.317-.042h-.043l.297-.042h-.043l.275-.085-.063.021.254-.106-.064.021.212-.127-.042.043.19-.17-.042.043.148-.17-.042.043.148-.185-.021.037.106-.228-.022.042.106-.232-.021.042.085-.254-.021.021.063-.275v.042l.042-.296v.021l.022-.296v.021l.02-.317v-7.483h3.324v7.186l-.021.593-.064.571-.106.53-.127.502-.19.445-.212.444-.254.402-.317.36-.36.318-.402.275-.466.233-.508.19-.55.127-.593.1-.635.064-.698.021-.694-.021-.656-.063-.613-.101-.55-.148-.509-.19-.465-.255-.403-.275-.36-.338-.296-.381-.233-.403-.211-.423-.19-.466-.128-.481-.084-.508-.064-.55-.021-.55zm.804 7.207v-.02l.022.55v-.043l.063.53-.021-.043.106.487-.022-.043.127.466-.02-.042.169.418-.022-.043.19.403-.02-.043.232.36-.02-.042.253.338-.02-.042.295.296-.042-.042.36.254-.042-.021.402.212-.043-.022.487.19-.042-.02.508.148h-.021l.571.085h-.042l.635.063h-.021l.672.021h-.022l.657-.021h-.022l.614-.063h-.021l.55-.085h-.02l.507-.127-.042.021.465-.19-.042.02.423-.21-.063.041.38-.254-.041.043.317-.297-.042.043.275-.318-.021.043.233-.36-.022.042.19-.402-.02.042.169-.418v.043l.127-.466-.021.021.085-.487v.021l.063-.529v.022l.021-.572v.021-6.783l.402.402h-2.518l.402-.402v7.08l-.021.36-.022.317-.042.317-.085.297-.084.296-.106.249-.127.254-.17.232-.19.233-.233.19-.254.149-.275.127-.317.106-.318.063-.36.043h-.735l-.339-.043-.338-.063-.297-.106-.275-.127-.275-.148-.212-.19-.19-.212-.17-.254-.127-.233-.127-.27-.084-.296-.064-.297-.063-.317-.021-.318-.022-.36v-7.08l.402.403h-2.518l.402-.402z" style="fill:#c5a472;fill-opacity:1;fill-rule:evenodd;stroke:none;stroke-width:.264583" transform="translate(28.44 .476)"/><path d="m134.868 13.054.021-.02h9.197l.021.02v2.456l-.021.02h-6.276l-.016-.036.403-.402.037.016v3.19l-.037.016-.403-.402.016-.037h5.964l.02.021v2.429l-.02.021h-5.964l-.016-.037.403-.402.037.016v3.212l-.037.015-.403-.402.016-.037h6.255l.02.021v2.456l-.02.02h-9.176l-.02-.02zm.043 12.134-.022-.022h9.176l-.022.022v-2.456l.022.022h-6.255l.01-.032.403.397-.032.016v-3.212l.032.016-.402.402-.01-.037h5.963l-.022.02v-2.428l.022.021h-5.964l.01-.037.403.402-.032.016v-3.19l.032.015-.402.403-.01-.037h6.275l-.021.02v-2.454l.02.02h-9.196l.022-.02zm.804-.402-.037.015-.402-.402.016-.037h8.376l.01.037-.402.402-.031-.015v-1.651l.031-.016.402.402-.01.037h-6.26l-.021-.021V19.52l.021-.022h5.964l.01.037-.402.403-.032-.016v-1.625l.032-.016.402.403-.01.037h-5.964l-.021-.022v-3.995l.021-.02h6.281l.01.036-.402.402-.031-.015v-1.651l.031-.01.403.396-.011.037h-8.397l-.016-.037.402-.397.037.01zm-.042-11.33.037.017-.403.402-.016-.037h8.398l-.016.037-.402-.402.037-.016v1.65l-.037-.015.402-.402.016.037h-6.28l.02-.022V18.7l-.021-.02h5.963l-.015.031-.403-.397.037-.016v1.625l-.037-.016.403-.397.015.032h-5.963l.021-.021v4.016l-.021-.021h6.26l-.016.037-.402-.403.037-.015v1.65l-.037-.015.402-.403.016.038h-8.377l.016-.038.403.403-.037.016zm-14.086-.402.021-.02h3.323l.021.02v7.483l.021.317h-.042v-.021h.042l.022.296h-.043v-.021l.043-.005.042.296-.042.005v-.042l.042-.005.063.275-.037.021-.02-.021.036-.027.085.254-.042.016-.022-.042.037-.016.106.233-.037.016-.02-.043.036-.015.127.232-.037.016-.021-.042.037-.021.127.19-.037.021-.021-.042.037-.021.148.17-.032.026-.042-.043.026-.031.19.169-.026.032-.042-.043.026-.031.19.127-.02.037-.043-.022.016-.037.233.106-.016.037-.042-.02.016-.043.275.084-.005.043h-.042v-.043l.275.043v.042h-.021v-.042l.317.042v.042h-.042v-.042h.333v.042h-.021v-.042h.339v.042h-.022v-.042l.318-.042v.042h-.042v-.042l.296-.043v.043h-.042l-.005-.043.275-.084.016.042-.064.021-.016-.037.254-.106.016.037-.063.022-.022-.037.212-.127.027.031-.043.043-.026-.032.19-.17.027.032-.042.043-.032-.027.148-.17.032.027-.043.043-.031-.027.148-.19.037.02-.021.043-.037-.016.105-.232.037.015-.02.043-.038-.016.1-.233.043.016-.021.042-.042-.016.084-.254.037.027-.02.021-.038-.021.064-.275.042.005v.042l-.042-.005.042-.296.042.005v.021h-.042l.021-.296h.042v.021h-.042l.021-.317v-7.482l.022-.022h3.323l.02.022v7.185l-.02.593h-.005l-.059.571-.005.006-.106.523v.006l-.127.502v.006l-.19.444-.212.445-.254.402v.005l-.317.36h-.005l-.36.317-.402.276-.466.232h-.005l-.508.19-.55.128-.593.106-.635.063h-.005l-.693.021h-.005l-.698-.02-.656-.064-.614-.106-.55-.148-.508-.19h-.005l-.466-.255-.402-.275h-.005l-.355-.339-.005-.005-.296-.376v-.005l-.233-.402-.212-.423-.19-.466v-.005l-.127-.482-.005-.005-.085-.508-.063-.55-.021-.55zm.042 7.207.021.55v-.005l.064.55.085.509.127.481.19.466.212.418.233.402h-.005l.296.376.36.338h-.005l.402.27.465.254h-.005l.508.19.55.149.61.106.655.058.699.021h-.005l.698-.021.635-.058.588-.106.55-.127.508-.19h-.005l.466-.233.402-.276-.005.006.36-.318.317-.36-.005.006.254-.402.212-.44.19-.444.127-.503.106-.529.063-.566.022-.593v-7.185l.02.02h-3.322l.021-.02v7.482l-.021.317h-.042v-.021h.042l-.021.296h-.043v-.021h.043l-.043.296h-.042v-.042l.042.005-.063.275-.037-.02.02-.022.038.021-.085.254-.037-.016.021-.042.037.016-.105.233-.037-.016.02-.042.038.015-.106.233-.037-.016.021-.042.032.021-.148.19-.032-.026.042-.042.032.026-.148.17-.032-.027.043-.042.031.026-.19.17-.032-.027.042-.042.027.032-.212.127-.016-.037.064-.022.016.037-.254.106-.016-.037.063-.02.01.036-.269.085-.01-.043h.042l.005.043-.297.042-.005-.042h.043l.005.042-.318.042-.005-.042h.021v.042h-.338v-.042h.02v.042h-.332v-.042h.042l-.005.042-.318-.042.005-.042h.022l-.005.042-.276-.042.005-.043h.043l-.01.043-.27-.085.01-.037.042.021-.016.037-.233-.106.022-.037.037.022-.022.037-.185-.127.027-.032.042.042-.032.027-.19-.17.032-.026.042.042-.032.027-.148-.17.032-.02.021.042-.037.02-.127-.19.037-.02.021.041-.037.016-.127-.233.037-.015.022.042-.037.016-.106-.233.037-.016.02.042-.036.016-.085-.254.037-.02.021.02-.037.021-.063-.275.042-.005v.042h-.042l-.042-.296h.042v.021h-.042l-.022-.296h.043v.021h-.043l-.02-.317v-7.482l.02.02h-3.323l.022-.02zm.804 0h-.042v-.02h.042l.022.55h-.043v-.043h.043l.063.524-.037.016-.021-.042.037-.016.106.487-.037.01-.021-.042.037-.01.127.46-.037.015-.022-.042.037-.016.17.424-.037.015-.022-.042.037-.016.191.402-.037.016-.021-.042.037-.021.233.36-.037.02-.022-.042.032-.02.254.338-.032.021-.02-.042.03-.027.297.297-.032.031-.042-.042.027-.032.36.254-.022.037-.042-.02.021-.043.402.211-.02.037-.043-.02.016-.038.486.19-.015.038-.043-.021.016-.037.508.148-.005.042h-.021v-.042l.571.084v.043h-.042v-.043l.635.064v.042h-.021v-.042l.677.021-.005.042h-.021v-.042l.656-.021v.042h-.021v-.042l.614-.064v.043h-.021v-.043l.55-.084v.042h-.021l-.005-.042.508-.127.015.037-.042.02-.016-.036.46-.19.022.036-.042.022-.022-.037.424-.212.02.037-.063.042-.02-.031.38-.254.027.031-.043.043-.031-.032.317-.296.032.031-.042.043-.032-.032.275-.312.032.02-.021.043-.037-.021.232-.36.037.021-.02.043-.038-.016.19-.402.038.016-.022.042-.037-.016.17-.423.042.01v.043l-.042-.011.127-.46.037.016-.021.02-.037-.015.084-.487.043.005v.021l-.043-.005.064-.529.042.005v.022h-.042l.021-.572h.042v.021h-.042v-6.783l.032-.01.402.396-.01.037h-2.52l-.015-.037.402-.397.037.01v7.08l-.021.36-.022.318-.042.317v.006l-.085.296-.084.296-.106.254-.127.254-.005.006-.17.232-.19.233-.233.19-.005.006-.254.148-.275.127-.317.106h-.005l-.318.063-.36.043h-.745l-.339-.043-.338-.063h-.005l-.297-.106-.275-.127-.275-.148-.005-.005-.212-.19-.19-.213-.17-.253-.005-.006-.127-.233-.127-.275-.084-.296v-.005l-.064-.291-.063-.318v-.005l-.021-.318-.022-.36v-7.08l.037-.01.402.397-.015.037h-2.52l-.01-.037.397-.397.037.01zm-.042-6.804.037.016-.402.402-.016-.037h2.519l-.016.037-.402-.402.037-.016v7.08l.02.36.022.317v-.005l.064.317.063.296.085.291.127.276h-.005l.127.227.17.254.19.212v-.006l.206.19.275.149-.005-.005.275.127.297.106h-.005l.338.063.339.042h.735l.36-.042.318-.063h-.005l.317-.106.275-.127-.005.005.254-.148.233-.19-.005.005.19-.233.17-.233-.005.005.127-.254.106-.254.085-.29.084-.297.043-.317v.005l.02-.318.022-.36v-7.08l.037.017-.402.402-.016-.037h2.519l-.016.037-.402-.402.037-.016v6.783h-.043v-.021h.043l-.022.572h-.042v-.022h.042l-.063.53h-.042v-.022h.042l-.085.487-.037-.016.021-.02.037.02-.127.466-.042-.005v-.043l.037.006-.17.423-.036-.016.02-.042.038.016-.19.402-.038-.021.022-.043.037.021-.233.36-.037-.021.021-.042.037.026-.275.318-.032-.032.042-.042.032.031-.317.297-.032-.032.042-.042.027.031-.381.254-.021-.031.063-.043.021.037-.423.207-.021-.037.042-.022.021.043-.465.19-.022-.042.043-.021.016.042-.508.127-.005-.042h.02l.006.042-.55.085-.005-.043h.02l.006.043-.614.063-.005-.042h.021v.042l-.65.021-.006-.042h.022v.042l-.678-.02.005-.043h.021l-.005.042-.635-.063.005-.043h.043l-.005.043-.572-.085.005-.042h.022l-.005.042-.508-.148.015-.042.043.02-.021.043-.482-.19.016-.043.042.021-.021.037-.402-.211.021-.037.042.02-.02.038-.36-.254.026-.032.042.043-.032.031-.296-.296.037-.026.021.042-.037.021-.254-.333.037-.027.022.043-.037.02-.233-.36.037-.015.02.037-.036.021-.19-.402.036-.016.022.043-.037.015-.17-.423.037-.016.022.043-.043.015-.127-.465.043-.016.02.042-.042.016-.105-.487.042-.016.021.043-.042.01-.064-.529h.043v.043h-.043l-.02-.55h.041v.02h-.042z" style="fill:#c5a472;fill-opacity:1;fill-rule:nonzero;stroke:#c5a472;stroke-width:.00529139px;stroke-linecap:butt;stroke-linejoin:round;stroke-miterlimit:4;stroke-dasharray:none;stroke-opacity:1" transform="translate(28.44 .476)"/></svg>